<?xml version="1.0" encoding="utf-8" standalone="no"?>
<!DOCTYPE svg PUBLIC "-//W3C//DTD SVG 1.1//EN"
  "http://www.w3.org/Graphics/SVG/1.1/DTD/svg11.dtd">
<!-- Created with matplotlib (http://matplotlib.org/) -->
<svg height="432pt" version="1.1" viewBox="0 0 576 432" width="576pt" xmlns="http://www.w3.org/2000/svg" xmlns:xlink="http://www.w3.org/1999/xlink">
 <defs>
  <style type="text/css">
*{stroke-linecap:butt;stroke-linejoin:round;stroke-miterlimit:100000;}
  </style>
 </defs>
 <g id="figure_1">
  <g id="patch_1">
   <path d="M 0 432 
L 576 432 
L 576 0 
L 0 0 
z
" style="fill:#ffffff;"/>
  </g>
  <g id="axes_1">
   <g id="patch_2">
    <path d="M 72 388.8 
L 518.4 388.8 
L 518.4 43.2 
L 72 43.2 
z
" style="fill:#ffffff;"/>
   </g>
   <g id="PathCollection_1">
    <defs>
     <path d="M 0 2.236068 
C 0.593012 2.236068 1.161816 2.000462 1.581139 1.581139 
C 2.000462 1.161816 2.236068 0.593012 2.236068 0 
C 2.236068 -0.593012 2.000462 -1.161816 1.581139 -1.581139 
C 1.161816 -2.000462 0.593012 -2.236068 0 -2.236068 
C -0.593012 -2.236068 -1.161816 -2.000462 -1.581139 -1.581139 
C -2.000462 -1.161816 -2.236068 -0.593012 -2.236068 0 
C -2.236068 0.593012 -2.000462 1.161816 -1.581139 1.581139 
C -1.161816 2.000462 -0.593012 2.236068 0 2.236068 
z
" id="mc9b384610c" style="stroke:#000000;"/>
    </defs>
    <g clip-path="url(#p8768bd4836)">
     <use style="fill:#0000ff;stroke:#000000;" x="155.370060923" xlink:href="#mc9b384610c" y="312.0"/>
     <use style="fill:#0000ff;stroke:#000000;" x="156.794721122" xlink:href="#mc9b384610c" y="254.4"/>
     <use style="fill:#0000ff;stroke:#000000;" x="178.715989216" xlink:href="#mc9b384610c" y="350.4"/>
     <use style="fill:#0000ff;stroke:#000000;" x="152.143757098" xlink:href="#mc9b384610c" y="331.2"/>
     <use style="fill:#0000ff;stroke:#000000;" x="159.720716954" xlink:href="#mc9b384610c" y="350.4"/>
     <use style="fill:#0000ff;stroke:#000000;" x="169.541150962" xlink:href="#mc9b384610c" y="350.4"/>
     <use style="fill:#0000ff;stroke:#000000;" x="179.232577539" xlink:href="#mc9b384610c" y="350.4"/>
     <use style="fill:#0000ff;stroke:#000000;" x="152.28842042" xlink:href="#mc9b384610c" y="331.2"/>
     <use style="fill:#0000ff;stroke:#000000;" x="166.422310372" xlink:href="#mc9b384610c" y="350.4"/>
     <use style="fill:#0000ff;stroke:#000000;" x="260.70087279" xlink:href="#mc9b384610c" y="350.4"/>
     <use style="fill:#0000ff;stroke:#000000;" x="153.021182009" xlink:href="#mc9b384610c" y="273.6"/>
     <use style="fill:#0000ff;stroke:#000000;" x="156.659649398" xlink:href="#mc9b384610c" y="254.4"/>
     <use style="fill:#0000ff;stroke:#000000;" x="163.72098473" xlink:href="#mc9b384610c" y="350.4"/>
     <use style="fill:#0000ff;stroke:#000000;" x="161.088301173" xlink:href="#mc9b384610c" y="331.2"/>
     <use style="fill:#0000ff;stroke:#000000;" x="156.180133987" xlink:href="#mc9b384610c" y="331.2"/>
     <use style="fill:#0000ff;stroke:#000000;" x="151.091331512" xlink:href="#mc9b384610c" y="312.0"/>
     <use style="fill:#0000ff;stroke:#000000;" x="154.007741068" xlink:href="#mc9b384610c" y="350.4"/>
     <use style="fill:#0000ff;stroke:#000000;" x="149.612150532" xlink:href="#mc9b384610c" y="177.6"/>
     <use style="fill:#0000ff;stroke:#000000;" x="158.763838472" xlink:href="#mc9b384610c" y="273.6"/>
     <use style="fill:#0000ff;stroke:#000000;" x="161.781918861" xlink:href="#mc9b384610c" y="312.0"/>
     <use style="fill:#0000ff;stroke:#000000;" x="166.679425696" xlink:href="#mc9b384610c" y="216.0"/>
     <use style="fill:#0000ff;stroke:#000000;" x="155.615995" xlink:href="#mc9b384610c" y="312.0"/>
     <use style="fill:#0000ff;stroke:#000000;" x="156.659649398" xlink:href="#mc9b384610c" y="331.2"/>
     <use style="fill:#0000ff;stroke:#000000;" x="160.298270488" xlink:href="#mc9b384610c" y="350.4"/>
     <use style="fill:#0000ff;stroke:#000000;" x="149.902336043" xlink:href="#mc9b384610c" y="331.2"/>
     <use style="fill:#0000ff;stroke:#000000;" x="156.303866881" xlink:href="#mc9b384610c" y="139.2"/>
     <use style="fill:#0000ff;stroke:#000000;" x="161.661977224" xlink:href="#mc9b384610c" y="350.4"/>
     <use style="fill:#0000ff;stroke:#000000;" x="150.458722873" xlink:href="#mc9b384610c" y="273.6"/>
     <use style="fill:#0000ff;stroke:#000000;" x="193.087645071" xlink:href="#mc9b384610c" y="350.4"/>
     <use style="fill:#0000ff;stroke:#000000;" x="162.347306351" xlink:href="#mc9b384610c" y="216.0"/>
     <use style="fill:#0000ff;stroke:#000000;" x="208.236381866" xlink:href="#mc9b384610c" y="273.6"/>
     <use style="fill:#0000ff;stroke:#000000;" x="193.676736375" xlink:href="#mc9b384610c" y="312.0"/>
     <use style="fill:#0000ff;stroke:#000000;" x="284.17112284" xlink:href="#mc9b384610c" y="312.0"/>
     <use style="fill:#0000ff;stroke:#000000;" x="146.4" xlink:href="#mc9b384610c" y="158.4"/>
     <use style="fill:#0000ff;stroke:#000000;" x="159.026098685" xlink:href="#mc9b384610c" y="331.2"/>
     <use style="fill:#0000ff;stroke:#000000;" x="154.625827657" xlink:href="#mc9b384610c" y="292.8"/>
     <use style="fill:#0000ff;stroke:#000000;" x="256.794558544" xlink:href="#mc9b384610c" y="331.2"/>
     <use style="fill:#0000ff;stroke:#000000;" x="153.619484037" xlink:href="#mc9b384610c" y="331.2"/>
     <use style="fill:#0000ff;stroke:#000000;" x="158.996251785" xlink:href="#mc9b384610c" y="350.4"/>
     <use style="fill:#0000ff;stroke:#000000;" x="165.849019537" xlink:href="#mc9b384610c" y="350.4"/>
     <use style="fill:#0000ff;stroke:#000000;" x="158.455555241" xlink:href="#mc9b384610c" y="292.8"/>
     <use style="fill:#0000ff;stroke:#000000;" x="171.846975346" xlink:href="#mc9b384610c" y="312.0"/>
     <use style="fill:#0000ff;stroke:#000000;" x="228.25217364" xlink:href="#mc9b384610c" y="350.4"/>
     <use style="fill:#0000ff;stroke:#000000;" x="164.025107183" xlink:href="#mc9b384610c" y="292.8"/>
     <use style="fill:#0000ff;stroke:#000000;" x="163.877508582" xlink:href="#mc9b384610c" y="350.4"/>
     <use style="fill:#0000ff;stroke:#000000;" x="155.876585917" xlink:href="#mc9b384610c" y="254.4"/>
     <use style="fill:#0000ff;stroke:#000000;" x="336.895036221" xlink:href="#mc9b384610c" y="350.4"/>
     <use style="fill:#0000ff;stroke:#000000;" x="152.132180821" xlink:href="#mc9b384610c" y="158.4"/>
     <use style="fill:#0000ff;stroke:#000000;" x="155.567819056" xlink:href="#mc9b384610c" y="273.6"/>
     <use style="fill:#0000ff;stroke:#000000;" x="236.457074255" xlink:href="#mc9b384610c" y="350.4"/>
     <use style="fill:#0000ff;stroke:#000000;" x="197.474177548" xlink:href="#mc9b384610c" y="350.4"/>
     <use style="fill:#0000ff;stroke:#000000;" x="183.643424255" xlink:href="#mc9b384610c" y="331.2"/>
     <use style="fill:#0000ff;stroke:#000000;" x="172.994852121" xlink:href="#mc9b384610c" y="312.0"/>
     <use style="fill:#0000ff;stroke:#000000;" x="195.970727362" xlink:href="#mc9b384610c" y="312.0"/>
     <use style="fill:#0000ff;stroke:#000000;" x="273.24534528" xlink:href="#mc9b384610c" y="350.4"/>
     <use style="fill:#0000ff;stroke:#000000;" x="489.461425361" xlink:href="#mc9b384610c" y="350.4"/>
     <use style="fill:#0000ff;stroke:#000000;" x="481.668887661" xlink:href="#mc9b384610c" y="350.4"/>
     <use style="fill:#0000ff;stroke:#000000;" x="197.561239929" xlink:href="#mc9b384610c" y="292.8"/>
     <use style="fill:#0000ff;stroke:#000000;" x="170.359110448" xlink:href="#mc9b384610c" y="350.4"/>
     <use style="fill:#0000ff;stroke:#000000;" x="241.933771872" xlink:href="#mc9b384610c" y="100.8"/>
     <use style="fill:#0000ff;stroke:#000000;" x="190.116822106" xlink:href="#mc9b384610c" y="331.2"/>
     <use style="fill:#0000ff;stroke:#000000;" x="179.063548917" xlink:href="#mc9b384610c" y="273.6"/>
     <use style="fill:#0000ff;stroke:#000000;" x="218.908516245" xlink:href="#mc9b384610c" y="350.4"/>
     <use style="fill:#0000ff;stroke:#000000;" x="193.746467148" xlink:href="#mc9b384610c" y="254.4"/>
     <use style="fill:#0000ff;stroke:#000000;" x="153.84892265" xlink:href="#mc9b384610c" y="100.8"/>
     <use style="fill:#0000ff;stroke:#000000;" x="157.4112" xlink:href="#mc9b384610c" y="350.4"/>
     <use style="fill:#0000ff;stroke:#000000;" x="152.909893713" xlink:href="#mc9b384610c" y="350.4"/>
     <use style="fill:#0000ff;stroke:#000000;" x="150.697203854" xlink:href="#mc9b384610c" y="254.4"/>
     <use style="fill:#0000ff;stroke:#000000;" x="154.692847077" xlink:href="#mc9b384610c" y="331.2"/>
     <use style="fill:#0000ff;stroke:#000000;" x="149.556524671" xlink:href="#mc9b384610c" y="350.4"/>
     <use style="fill:#0000ff;stroke:#000000;" x="152.182177306" xlink:href="#mc9b384610c" y="331.2"/>
     <use style="fill:#0000ff;stroke:#000000;" x="151.533060841" xlink:href="#mc9b384610c" y="331.2"/>
     <use style="fill:#0000ff;stroke:#000000;" x="156.43048869" xlink:href="#mc9b384610c" y="350.4"/>
     <use style="fill:#0000ff;stroke:#000000;" x="156.330658274" xlink:href="#mc9b384610c" y="331.2"/>
     <use style="fill:#0000ff;stroke:#000000;" x="154.282187554" xlink:href="#mc9b384610c" y="331.2"/>
     <use style="fill:#0000ff;stroke:#000000;" x="157.391073498" xlink:href="#mc9b384610c" y="350.4"/>
     <use style="fill:#0000ff;stroke:#000000;" x="151.711138725" xlink:href="#mc9b384610c" y="292.8"/>
     <use style="fill:#0000ff;stroke:#000000;" x="151.631330599" xlink:href="#mc9b384610c" y="312.0"/>
     <use style="fill:#0000ff;stroke:#000000;" x="158.497723687" xlink:href="#mc9b384610c" y="292.8"/>
     <use style="fill:#0000ff;stroke:#000000;" x="162.879893903" xlink:href="#mc9b384610c" y="196.8"/>
     <use style="fill:#0000ff;stroke:#000000;" x="167.954952493" xlink:href="#mc9b384610c" y="350.4"/>
     <use style="fill:#0000ff;stroke:#000000;" x="218.198736943" xlink:href="#mc9b384610c" y="312.0"/>
     <use style="fill:#0000ff;stroke:#000000;" x="254.621289664" xlink:href="#mc9b384610c" y="331.2"/>
     <use style="fill:#0000ff;stroke:#000000;" x="201.565681019" xlink:href="#mc9b384610c" y="350.4"/>
     <use style="fill:#0000ff;stroke:#000000;" x="146.4" xlink:href="#mc9b384610c" y="350.4"/>
     <use style="fill:#0000ff;stroke:#000000;" x="200.162739359" xlink:href="#mc9b384610c" y="350.4"/>
     <use style="fill:#0000ff;stroke:#000000;" x="189.714859573" xlink:href="#mc9b384610c" y="350.4"/>
     <use style="fill:#0000ff;stroke:#000000;" x="420.603963112" xlink:href="#mc9b384610c" y="350.4"/>
     <use style="fill:#0000ff;stroke:#000000;" x="149.199655293" xlink:href="#mc9b384610c" y="216.0"/>
     <use style="fill:#0000ff;stroke:#000000;" x="182.7072" xlink:href="#mc9b384610c" y="312.0"/>
     <use style="fill:#0000ff;stroke:#000000;" x="432.3936" xlink:href="#mc9b384610c" y="350.4"/>
     <use style="fill:#0000ff;stroke:#000000;" x="148.994416651" xlink:href="#mc9b384610c" y="331.2"/>
     <use style="fill:#0000ff;stroke:#000000;" x="148.418421403" xlink:href="#mc9b384610c" y="292.8"/>
     <use style="fill:#0000ff;stroke:#000000;" x="159.620609947" xlink:href="#mc9b384610c" y="350.4"/>
     <use style="fill:#0000ff;stroke:#000000;" x="156.116537457" xlink:href="#mc9b384610c" y="139.2"/>
     <use style="fill:#0000ff;stroke:#000000;" x="192.840382262" xlink:href="#mc9b384610c" y="312.0"/>
     <use style="fill:#0000ff;stroke:#000000;" x="258.14037891" xlink:href="#mc9b384610c" y="350.4"/>
     <use style="fill:#0000ff;stroke:#000000;" x="242.338965878" xlink:href="#mc9b384610c" y="350.4"/>
     <use style="fill:#0000ff;stroke:#000000;" x="157.42928245" xlink:href="#mc9b384610c" y="331.2"/>
     <use style="fill:#0000ff;stroke:#000000;" x="241.964591722" xlink:href="#mc9b384610c" y="331.2"/>
     <use style="fill:#0000ff;stroke:#000000;" x="151.321659818" xlink:href="#mc9b384610c" y="292.8"/>
     <use style="fill:#0000ff;stroke:#000000;" x="166.29695824" xlink:href="#mc9b384610c" y="312.0"/>
     <use style="fill:#0000ff;stroke:#000000;" x="157.902923343" xlink:href="#mc9b384610c" y="350.4"/>
     <use style="fill:#0000ff;stroke:#000000;" x="163.473786898" xlink:href="#mc9b384610c" y="292.8"/>
     <use style="fill:#0000ff;stroke:#000000;" x="157.883658678" xlink:href="#mc9b384610c" y="331.2"/>
     <use style="fill:#0000ff;stroke:#000000;" x="159.162148434" xlink:href="#mc9b384610c" y="100.8"/>
     <use style="fill:#0000ff;stroke:#000000;" x="153.668388806" xlink:href="#mc9b384610c" y="331.2"/>
     <use style="fill:#0000ff;stroke:#000000;" x="152.480806262" xlink:href="#mc9b384610c" y="292.8"/>
     <use style="fill:#0000ff;stroke:#000000;" x="182.849622299" xlink:href="#mc9b384610c" y="350.4"/>
     <use style="fill:#0000ff;stroke:#000000;" x="154.379898586" xlink:href="#mc9b384610c" y="312.0"/>
     <use style="fill:#0000ff;stroke:#000000;" x="177.861260842" xlink:href="#mc9b384610c" y="331.2"/>
     <use style="fill:#0000ff;stroke:#000000;" x="209.699666911" xlink:href="#mc9b384610c" y="331.2"/>
     <use style="fill:#0000ff;stroke:#000000;" x="155.258287835" xlink:href="#mc9b384610c" y="350.4"/>
     <use style="fill:#0000ff;stroke:#000000;" x="154.180404678" xlink:href="#mc9b384610c" y="350.4"/>
     <use style="fill:#0000ff;stroke:#000000;" x="204.766788145" xlink:href="#mc9b384610c" y="350.4"/>
     <use style="fill:#0000ff;stroke:#000000;" x="154.809504109" xlink:href="#mc9b384610c" y="62.4"/>
     <use style="fill:#0000ff;stroke:#000000;" x="159.436782327" xlink:href="#mc9b384610c" y="350.4"/>
     <use style="fill:#0000ff;stroke:#000000;" x="197.270017285" xlink:href="#mc9b384610c" y="331.2"/>
     <use style="fill:#0000ff;stroke:#000000;" x="189.568416188" xlink:href="#mc9b384610c" y="331.2"/>
     <use style="fill:#0000ff;stroke:#000000;" x="170.674931188" xlink:href="#mc9b384610c" y="350.4"/>
     <use style="fill:#0000ff;stroke:#000000;" x="193.505483238" xlink:href="#mc9b384610c" y="350.4"/>
     <use style="fill:#0000ff;stroke:#000000;" x="152.28842042" xlink:href="#mc9b384610c" y="312.0"/>
     <use style="fill:#0000ff;stroke:#000000;" x="149.019894349" xlink:href="#mc9b384610c" y="292.8"/>
     <use style="fill:#0000ff;stroke:#000000;" x="148.933972691" xlink:href="#mc9b384610c" y="273.6"/>
     <use style="fill:#0000ff;stroke:#000000;" x="234.139526013" xlink:href="#mc9b384610c" y="350.4"/>
     <use style="fill:#0000ff;stroke:#000000;" x="215.654212032" xlink:href="#mc9b384610c" y="350.4"/>
     <use style="fill:#0000ff;stroke:#000000;" x="153.786237754" xlink:href="#mc9b384610c" y="196.8"/>
     <use style="fill:#0000ff;stroke:#000000;" x="150.788969446" xlink:href="#mc9b384610c" y="254.4"/>
     <use style="fill:#0000ff;stroke:#000000;" x="150.475055828" xlink:href="#mc9b384610c" y="331.2"/>
     <use style="fill:#0000ff;stroke:#000000;" x="171.474455732" xlink:href="#mc9b384610c" y="350.4"/>
     <use style="fill:#0000ff;stroke:#000000;" x="167.251122652" xlink:href="#mc9b384610c" y="350.4"/>
     <use style="fill:#0000ff;stroke:#000000;" x="169.971535702" xlink:href="#mc9b384610c" y="350.4"/>
     <use style="fill:#0000ff;stroke:#000000;" x="167.068743149" xlink:href="#mc9b384610c" y="331.2"/>
     <use style="fill:#0000ff;stroke:#000000;" x="425.957383712" xlink:href="#mc9b384610c" y="350.4"/>
     <use style="fill:#0000ff;stroke:#000000;" x="168.475622175" xlink:href="#mc9b384610c" y="312.0"/>
     <use style="fill:#0000ff;stroke:#000000;" x="161.738674696" xlink:href="#mc9b384610c" y="312.0"/>
     <use style="fill:#0000ff;stroke:#000000;" x="315.489857342" xlink:href="#mc9b384610c" y="350.4"/>
     <use style="fill:#0000ff;stroke:#000000;" x="171.684618616" xlink:href="#mc9b384610c" y="350.4"/>
     <use style="fill:#0000ff;stroke:#000000;" x="206.853101828" xlink:href="#mc9b384610c" y="292.8"/>
     <use style="fill:#0000ff;stroke:#000000;" x="164.687271797" xlink:href="#mc9b384610c" y="312.0"/>
     <use style="fill:#0000ff;stroke:#000000;" x="146.6976" xlink:href="#mc9b384610c" y="292.8"/>
     <use style="fill:#0000ff;stroke:#000000;" x="149.434936414" xlink:href="#mc9b384610c" y="292.8"/>
     <use style="fill:#0000ff;stroke:#000000;" x="164.487617793" xlink:href="#mc9b384610c" y="235.2"/>
     <use style="fill:#0000ff;stroke:#000000;" x="153.993175209" xlink:href="#mc9b384610c" y="292.8"/>
     <use style="fill:#0000ff;stroke:#000000;" x="154.617748597" xlink:href="#mc9b384610c" y="254.4"/>
     <use style="fill:#0000ff;stroke:#000000;" x="152.212730635" xlink:href="#mc9b384610c" y="312.0"/>
     <use style="fill:#0000ff;stroke:#000000;" x="152.713049342" xlink:href="#mc9b384610c" y="120.0"/>
     <use style="fill:#0000ff;stroke:#000000;" x="152.775867301" xlink:href="#mc9b384610c" y="292.8"/>
     <use style="fill:#0000ff;stroke:#000000;" x="149.045126659" xlink:href="#mc9b384610c" y="350.4"/>
     <use style="fill:#0000ff;stroke:#000000;" x="150.075088897" xlink:href="#mc9b384610c" y="350.4"/>
     <use style="fill:#0000ff;stroke:#000000;" x="149.127549054" xlink:href="#mc9b384610c" y="312.0"/>
     <use style="fill:#0000ff;stroke:#000000;" x="148.096581033" xlink:href="#mc9b384610c" y="292.8"/>
     <use style="fill:#0000ff;stroke:#000000;" x="152.444284573" xlink:href="#mc9b384610c" y="196.8"/>
     <use style="fill:#0000ff;stroke:#000000;" x="153.40151042" xlink:href="#mc9b384610c" y="139.2"/>
     <use style="fill:#0000ff;stroke:#000000;" x="198.333971273" xlink:href="#mc9b384610c" y="350.4"/>
     <use style="fill:#0000ff;stroke:#000000;" x="229.817763081" xlink:href="#mc9b384610c" y="350.4"/>
     <use style="fill:#0000ff;stroke:#000000;" x="154.822658355" xlink:href="#mc9b384610c" y="312.0"/>
     <use style="fill:#0000ff;stroke:#000000;" x="214.055090906" xlink:href="#mc9b384610c" y="350.4"/>
     <use style="fill:#0000ff;stroke:#000000;" x="152.019047378" xlink:href="#mc9b384610c" y="273.6"/>
     <use style="fill:#0000ff;stroke:#000000;" x="157.796564703" xlink:href="#mc9b384610c" y="312.0"/>
     <use style="fill:#0000ff;stroke:#000000;" x="205.489902033" xlink:href="#mc9b384610c" y="350.4"/>
     <use style="fill:#0000ff;stroke:#000000;" x="152.116709319" xlink:href="#mc9b384610c" y="273.6"/>
     <use style="fill:#0000ff;stroke:#000000;" x="196.394585665" xlink:href="#mc9b384610c" y="350.4"/>
     <use style="fill:#0000ff;stroke:#000000;" x="169.645208146" xlink:href="#mc9b384610c" y="331.2"/>
     <use style="fill:#0000ff;stroke:#000000;" x="236.743047207" xlink:href="#mc9b384610c" y="331.2"/>
     <use style="fill:#0000ff;stroke:#000000;" x="176.498087583" xlink:href="#mc9b384610c" y="331.2"/>
     <use style="fill:#0000ff;stroke:#000000;" x="288.511868264" xlink:href="#mc9b384610c" y="350.4"/>
     <use style="fill:#0000ff;stroke:#000000;" x="189.127629161" xlink:href="#mc9b384610c" y="350.4"/>
     <use style="fill:#0000ff;stroke:#000000;" x="208.466547326" xlink:href="#mc9b384610c" y="350.4"/>
     <use style="fill:#0000ff;stroke:#000000;" x="220.119851112" xlink:href="#mc9b384610c" y="331.2"/>
     <use style="fill:#0000ff;stroke:#000000;" x="186.380984472" xlink:href="#mc9b384610c" y="350.4"/>
     <use style="fill:#0000ff;stroke:#000000;" x="298.284206134" xlink:href="#mc9b384610c" y="254.4"/>
     <use style="fill:#0000ff;stroke:#000000;" x="162.318122985" xlink:href="#mc9b384610c" y="100.8"/>
     <use style="fill:#0000ff;stroke:#000000;" x="223.654862098" xlink:href="#mc9b384610c" y="350.4"/>
     <use style="fill:#0000ff;stroke:#000000;" x="376.141417544" xlink:href="#mc9b384610c" y="350.4"/>
     <use style="fill:#0000ff;stroke:#000000;" x="242.174967131" xlink:href="#mc9b384610c" y="350.4"/>
     <use style="fill:#0000ff;stroke:#000000;" x="238.459711183" xlink:href="#mc9b384610c" y="350.4"/>
     <use style="fill:#0000ff;stroke:#000000;" x="382.0992" xlink:href="#mc9b384610c" y="350.4"/>
     <use style="fill:#0000ff;stroke:#000000;" x="183.991957472" xlink:href="#mc9b384610c" y="350.4"/>
    </g>
   </g>
   <g id="patch_3">
    <path d="M 72 43.2 
L 518.4 43.2 
" style="fill:none;stroke:#000000;stroke-linecap:square;stroke-linejoin:miter;"/>
   </g>
   <g id="patch_4">
    <path d="M 518.4 388.8 
L 518.4 43.2 
" style="fill:none;stroke:#000000;stroke-linecap:square;stroke-linejoin:miter;"/>
   </g>
   <g id="patch_5">
    <path d="M 72 388.8 
L 518.4 388.8 
" style="fill:none;stroke:#000000;stroke-linecap:square;stroke-linejoin:miter;"/>
   </g>
   <g id="patch_6">
    <path d="M 72 388.8 
L 72 43.2 
" style="fill:none;stroke:#000000;stroke-linecap:square;stroke-linejoin:miter;"/>
   </g>
   <g id="matplotlib.axis_1">
    <g id="xtick_1">
     <g id="line2d_1">
      <defs>
       <path d="M 0 0 
L 0 -4 
" id="m45f0f03ddb" style="stroke:#000000;stroke-width:0.5;"/>
      </defs>
      <g>
       <use style="stroke:#000000;stroke-width:0.5;" x="72.0" xlink:href="#m45f0f03ddb" y="388.8"/>
      </g>
     </g>
     <g id="line2d_2">
      <defs>
       <path d="M 0 0 
L 0 4 
" id="mb0b002ea74" style="stroke:#000000;stroke-width:0.5;"/>
      </defs>
      <g>
       <use style="stroke:#000000;stroke-width:0.5;" x="72.0" xlink:href="#mb0b002ea74" y="43.2"/>
      </g>
     </g>
     <g id="text_1">
      <!-- −100 -->
      <defs>
       <path d="M 10.59375 35.5 
L 73.1875 35.5 
L 73.1875 27.203125 
L 10.59375 27.203125 
z
" id="BitstreamVeraSans-Roman-2212"/>
       <path d="M 31.78125 66.40625 
Q 24.171875 66.40625 20.328125 58.90625 
Q 16.5 51.421875 16.5 36.375 
Q 16.5 21.390625 20.328125 13.890625 
Q 24.171875 6.390625 31.78125 6.390625 
Q 39.453125 6.390625 43.28125 13.890625 
Q 47.125 21.390625 47.125 36.375 
Q 47.125 51.421875 43.28125 58.90625 
Q 39.453125 66.40625 31.78125 66.40625 
M 31.78125 74.21875 
Q 44.046875 74.21875 50.515625 64.515625 
Q 56.984375 54.828125 56.984375 36.375 
Q 56.984375 17.96875 50.515625 8.265625 
Q 44.046875 -1.421875 31.78125 -1.421875 
Q 19.53125 -1.421875 13.0625 8.265625 
Q 6.59375 17.96875 6.59375 36.375 
Q 6.59375 54.828125 13.0625 64.515625 
Q 19.53125 74.21875 31.78125 74.21875 
" id="BitstreamVeraSans-Roman-30"/>
       <path d="M 12.40625 8.296875 
L 28.515625 8.296875 
L 28.515625 63.921875 
L 10.984375 60.40625 
L 10.984375 69.390625 
L 28.421875 72.90625 
L 38.28125 72.90625 
L 38.28125 8.296875 
L 54.390625 8.296875 
L 54.390625 0 
L 12.40625 0 
z
" id="BitstreamVeraSans-Roman-31"/>
      </defs>
      <g transform="translate(55.5196875 401.918125)scale(0.12 -0.12)">
       <use xlink:href="#BitstreamVeraSans-Roman-2212"/>
       <use x="83.7890625" xlink:href="#BitstreamVeraSans-Roman-31"/>
       <use x="147.412109375" xlink:href="#BitstreamVeraSans-Roman-30"/>
       <use x="211.03515625" xlink:href="#BitstreamVeraSans-Roman-30"/>
      </g>
     </g>
    </g>
    <g id="xtick_2">
     <g id="line2d_3">
      <g>
       <use style="stroke:#000000;stroke-width:0.5;" x="146.4" xlink:href="#m45f0f03ddb" y="388.8"/>
      </g>
     </g>
     <g id="line2d_4">
      <g>
       <use style="stroke:#000000;stroke-width:0.5;" x="146.4" xlink:href="#mb0b002ea74" y="43.2"/>
      </g>
     </g>
     <g id="text_2">
      <!-- 0 -->
      <g transform="translate(142.5825 401.918125)scale(0.12 -0.12)">
       <use xlink:href="#BitstreamVeraSans-Roman-30"/>
      </g>
     </g>
    </g>
    <g id="xtick_3">
     <g id="line2d_5">
      <g>
       <use style="stroke:#000000;stroke-width:0.5;" x="220.8" xlink:href="#m45f0f03ddb" y="388.8"/>
      </g>
     </g>
     <g id="line2d_6">
      <g>
       <use style="stroke:#000000;stroke-width:0.5;" x="220.8" xlink:href="#mb0b002ea74" y="43.2"/>
      </g>
     </g>
     <g id="text_3">
      <!-- 100 -->
      <g transform="translate(209.3475 401.918125)scale(0.12 -0.12)">
       <use xlink:href="#BitstreamVeraSans-Roman-31"/>
       <use x="63.623046875" xlink:href="#BitstreamVeraSans-Roman-30"/>
       <use x="127.24609375" xlink:href="#BitstreamVeraSans-Roman-30"/>
      </g>
     </g>
    </g>
    <g id="xtick_4">
     <g id="line2d_7">
      <g>
       <use style="stroke:#000000;stroke-width:0.5;" x="295.2" xlink:href="#m45f0f03ddb" y="388.8"/>
      </g>
     </g>
     <g id="line2d_8">
      <g>
       <use style="stroke:#000000;stroke-width:0.5;" x="295.2" xlink:href="#mb0b002ea74" y="43.2"/>
      </g>
     </g>
     <g id="text_4">
      <!-- 200 -->
      <defs>
       <path d="M 19.1875 8.296875 
L 53.609375 8.296875 
L 53.609375 0 
L 7.328125 0 
L 7.328125 8.296875 
Q 12.9375 14.109375 22.625 23.890625 
Q 32.328125 33.6875 34.8125 36.53125 
Q 39.546875 41.84375 41.421875 45.53125 
Q 43.3125 49.21875 43.3125 52.78125 
Q 43.3125 58.59375 39.234375 62.25 
Q 35.15625 65.921875 28.609375 65.921875 
Q 23.96875 65.921875 18.8125 64.3125 
Q 13.671875 62.703125 7.8125 59.421875 
L 7.8125 69.390625 
Q 13.765625 71.78125 18.9375 73 
Q 24.125 74.21875 28.421875 74.21875 
Q 39.75 74.21875 46.484375 68.546875 
Q 53.21875 62.890625 53.21875 53.421875 
Q 53.21875 48.921875 51.53125 44.890625 
Q 49.859375 40.875 45.40625 35.40625 
Q 44.1875 33.984375 37.640625 27.21875 
Q 31.109375 20.453125 19.1875 8.296875 
" id="BitstreamVeraSans-Roman-32"/>
      </defs>
      <g transform="translate(283.7475 401.918125)scale(0.12 -0.12)">
       <use xlink:href="#BitstreamVeraSans-Roman-32"/>
       <use x="63.623046875" xlink:href="#BitstreamVeraSans-Roman-30"/>
       <use x="127.24609375" xlink:href="#BitstreamVeraSans-Roman-30"/>
      </g>
     </g>
    </g>
    <g id="xtick_5">
     <g id="line2d_9">
      <g>
       <use style="stroke:#000000;stroke-width:0.5;" x="369.6" xlink:href="#m45f0f03ddb" y="388.8"/>
      </g>
     </g>
     <g id="line2d_10">
      <g>
       <use style="stroke:#000000;stroke-width:0.5;" x="369.6" xlink:href="#mb0b002ea74" y="43.2"/>
      </g>
     </g>
     <g id="text_5">
      <!-- 300 -->
      <defs>
       <path d="M 40.578125 39.3125 
Q 47.65625 37.796875 51.625 33 
Q 55.609375 28.21875 55.609375 21.1875 
Q 55.609375 10.40625 48.1875 4.484375 
Q 40.765625 -1.421875 27.09375 -1.421875 
Q 22.515625 -1.421875 17.65625 -0.515625 
Q 12.796875 0.390625 7.625 2.203125 
L 7.625 11.71875 
Q 11.71875 9.328125 16.59375 8.109375 
Q 21.484375 6.890625 26.8125 6.890625 
Q 36.078125 6.890625 40.9375 10.546875 
Q 45.796875 14.203125 45.796875 21.1875 
Q 45.796875 27.640625 41.28125 31.265625 
Q 36.765625 34.90625 28.71875 34.90625 
L 20.21875 34.90625 
L 20.21875 43.015625 
L 29.109375 43.015625 
Q 36.375 43.015625 40.234375 45.921875 
Q 44.09375 48.828125 44.09375 54.296875 
Q 44.09375 59.90625 40.109375 62.90625 
Q 36.140625 65.921875 28.71875 65.921875 
Q 24.65625 65.921875 20.015625 65.03125 
Q 15.375 64.15625 9.8125 62.3125 
L 9.8125 71.09375 
Q 15.4375 72.65625 20.34375 73.4375 
Q 25.25 74.21875 29.59375 74.21875 
Q 40.828125 74.21875 47.359375 69.109375 
Q 53.90625 64.015625 53.90625 55.328125 
Q 53.90625 49.265625 50.4375 45.09375 
Q 46.96875 40.921875 40.578125 39.3125 
" id="BitstreamVeraSans-Roman-33"/>
      </defs>
      <g transform="translate(358.1475 401.918125)scale(0.12 -0.12)">
       <use xlink:href="#BitstreamVeraSans-Roman-33"/>
       <use x="63.623046875" xlink:href="#BitstreamVeraSans-Roman-30"/>
       <use x="127.24609375" xlink:href="#BitstreamVeraSans-Roman-30"/>
      </g>
     </g>
    </g>
    <g id="xtick_6">
     <g id="line2d_11">
      <g>
       <use style="stroke:#000000;stroke-width:0.5;" x="444.0" xlink:href="#m45f0f03ddb" y="388.8"/>
      </g>
     </g>
     <g id="line2d_12">
      <g>
       <use style="stroke:#000000;stroke-width:0.5;" x="444.0" xlink:href="#mb0b002ea74" y="43.2"/>
      </g>
     </g>
     <g id="text_6">
      <!-- 400 -->
      <defs>
       <path d="M 37.796875 64.3125 
L 12.890625 25.390625 
L 37.796875 25.390625 
z
M 35.203125 72.90625 
L 47.609375 72.90625 
L 47.609375 25.390625 
L 58.015625 25.390625 
L 58.015625 17.1875 
L 47.609375 17.1875 
L 47.609375 0 
L 37.796875 0 
L 37.796875 17.1875 
L 4.890625 17.1875 
L 4.890625 26.703125 
z
" id="BitstreamVeraSans-Roman-34"/>
      </defs>
      <g transform="translate(432.5475 401.918125)scale(0.12 -0.12)">
       <use xlink:href="#BitstreamVeraSans-Roman-34"/>
       <use x="63.623046875" xlink:href="#BitstreamVeraSans-Roman-30"/>
       <use x="127.24609375" xlink:href="#BitstreamVeraSans-Roman-30"/>
      </g>
     </g>
    </g>
    <g id="xtick_7">
     <g id="line2d_13">
      <g>
       <use style="stroke:#000000;stroke-width:0.5;" x="518.4" xlink:href="#m45f0f03ddb" y="388.8"/>
      </g>
     </g>
     <g id="line2d_14">
      <g>
       <use style="stroke:#000000;stroke-width:0.5;" x="518.4" xlink:href="#mb0b002ea74" y="43.2"/>
      </g>
     </g>
     <g id="text_7">
      <!-- 500 -->
      <defs>
       <path d="M 10.796875 72.90625 
L 49.515625 72.90625 
L 49.515625 64.59375 
L 19.828125 64.59375 
L 19.828125 46.734375 
Q 21.96875 47.46875 24.109375 47.828125 
Q 26.265625 48.1875 28.421875 48.1875 
Q 40.625 48.1875 47.75 41.5 
Q 54.890625 34.8125 54.890625 23.390625 
Q 54.890625 11.625 47.5625 5.09375 
Q 40.234375 -1.421875 26.90625 -1.421875 
Q 22.3125 -1.421875 17.546875 -0.640625 
Q 12.796875 0.140625 7.71875 1.703125 
L 7.71875 11.625 
Q 12.109375 9.234375 16.796875 8.0625 
Q 21.484375 6.890625 26.703125 6.890625 
Q 35.15625 6.890625 40.078125 11.328125 
Q 45.015625 15.765625 45.015625 23.390625 
Q 45.015625 31 40.078125 35.4375 
Q 35.15625 39.890625 26.703125 39.890625 
Q 22.75 39.890625 18.8125 39.015625 
Q 14.890625 38.140625 10.796875 36.28125 
z
" id="BitstreamVeraSans-Roman-35"/>
      </defs>
      <g transform="translate(506.9475 401.918125)scale(0.12 -0.12)">
       <use xlink:href="#BitstreamVeraSans-Roman-35"/>
       <use x="63.623046875" xlink:href="#BitstreamVeraSans-Roman-30"/>
       <use x="127.24609375" xlink:href="#BitstreamVeraSans-Roman-30"/>
      </g>
     </g>
    </g>
    <g id="text_8">
     <!-- top 5 std -->
     <defs>
      <path id="BitstreamVeraSans-Roman-20"/>
      <path d="M 30.609375 48.390625 
Q 23.390625 48.390625 19.1875 42.75 
Q 14.984375 37.109375 14.984375 27.296875 
Q 14.984375 17.484375 19.15625 11.84375 
Q 23.34375 6.203125 30.609375 6.203125 
Q 37.796875 6.203125 41.984375 11.859375 
Q 46.1875 17.53125 46.1875 27.296875 
Q 46.1875 37.015625 41.984375 42.703125 
Q 37.796875 48.390625 30.609375 48.390625 
M 30.609375 56 
Q 42.328125 56 49.015625 48.375 
Q 55.71875 40.765625 55.71875 27.296875 
Q 55.71875 13.875 49.015625 6.21875 
Q 42.328125 -1.421875 30.609375 -1.421875 
Q 18.84375 -1.421875 12.171875 6.21875 
Q 5.515625 13.875 5.515625 27.296875 
Q 5.515625 40.765625 12.171875 48.375 
Q 18.84375 56 30.609375 56 
" id="BitstreamVeraSans-Roman-6f"/>
      <path d="M 45.40625 46.390625 
L 45.40625 75.984375 
L 54.390625 75.984375 
L 54.390625 0 
L 45.40625 0 
L 45.40625 8.203125 
Q 42.578125 3.328125 38.25 0.953125 
Q 33.9375 -1.421875 27.875 -1.421875 
Q 17.96875 -1.421875 11.734375 6.484375 
Q 5.515625 14.40625 5.515625 27.296875 
Q 5.515625 40.1875 11.734375 48.09375 
Q 17.96875 56 27.875 56 
Q 33.9375 56 38.25 53.625 
Q 42.578125 51.265625 45.40625 46.390625 
M 14.796875 27.296875 
Q 14.796875 17.390625 18.875 11.75 
Q 22.953125 6.109375 30.078125 6.109375 
Q 37.203125 6.109375 41.296875 11.75 
Q 45.40625 17.390625 45.40625 27.296875 
Q 45.40625 37.203125 41.296875 42.84375 
Q 37.203125 48.484375 30.078125 48.484375 
Q 22.953125 48.484375 18.875 42.84375 
Q 14.796875 37.203125 14.796875 27.296875 
" id="BitstreamVeraSans-Roman-64"/>
      <path d="M 18.3125 70.21875 
L 18.3125 54.6875 
L 36.8125 54.6875 
L 36.8125 47.703125 
L 18.3125 47.703125 
L 18.3125 18.015625 
Q 18.3125 11.328125 20.140625 9.421875 
Q 21.96875 7.515625 27.59375 7.515625 
L 36.8125 7.515625 
L 36.8125 0 
L 27.59375 0 
Q 17.1875 0 13.234375 3.875 
Q 9.28125 7.765625 9.28125 18.015625 
L 9.28125 47.703125 
L 2.6875 47.703125 
L 2.6875 54.6875 
L 9.28125 54.6875 
L 9.28125 70.21875 
z
" id="BitstreamVeraSans-Roman-74"/>
      <path d="M 44.28125 53.078125 
L 44.28125 44.578125 
Q 40.484375 46.53125 36.375 47.5 
Q 32.28125 48.484375 27.875 48.484375 
Q 21.1875 48.484375 17.84375 46.4375 
Q 14.5 44.390625 14.5 40.28125 
Q 14.5 37.15625 16.890625 35.375 
Q 19.28125 33.59375 26.515625 31.984375 
L 29.59375 31.296875 
Q 39.15625 29.25 43.1875 25.515625 
Q 47.21875 21.78125 47.21875 15.09375 
Q 47.21875 7.46875 41.1875 3.015625 
Q 35.15625 -1.421875 24.609375 -1.421875 
Q 20.21875 -1.421875 15.453125 -0.5625 
Q 10.6875 0.296875 5.421875 2 
L 5.421875 11.28125 
Q 10.40625 8.6875 15.234375 7.390625 
Q 20.0625 6.109375 24.8125 6.109375 
Q 31.15625 6.109375 34.5625 8.28125 
Q 37.984375 10.453125 37.984375 14.40625 
Q 37.984375 18.0625 35.515625 20.015625 
Q 33.0625 21.96875 24.703125 23.78125 
L 21.578125 24.515625 
Q 13.234375 26.265625 9.515625 29.90625 
Q 5.8125 33.546875 5.8125 39.890625 
Q 5.8125 47.609375 11.28125 51.796875 
Q 16.75 56 26.8125 56 
Q 31.78125 56 36.171875 55.265625 
Q 40.578125 54.546875 44.28125 53.078125 
" id="BitstreamVeraSans-Roman-73"/>
      <path d="M 18.109375 8.203125 
L 18.109375 -20.796875 
L 9.078125 -20.796875 
L 9.078125 54.6875 
L 18.109375 54.6875 
L 18.109375 46.390625 
Q 20.953125 51.265625 25.265625 53.625 
Q 29.59375 56 35.59375 56 
Q 45.5625 56 51.78125 48.09375 
Q 58.015625 40.1875 58.015625 27.296875 
Q 58.015625 14.40625 51.78125 6.484375 
Q 45.5625 -1.421875 35.59375 -1.421875 
Q 29.59375 -1.421875 25.265625 0.953125 
Q 20.953125 3.328125 18.109375 8.203125 
M 48.6875 27.296875 
Q 48.6875 37.203125 44.609375 42.84375 
Q 40.53125 48.484375 33.40625 48.484375 
Q 26.265625 48.484375 22.1875 42.84375 
Q 18.109375 37.203125 18.109375 27.296875 
Q 18.109375 17.390625 22.1875 11.75 
Q 26.265625 6.109375 33.40625 6.109375 
Q 40.53125 6.109375 44.609375 11.75 
Q 48.6875 17.390625 48.6875 27.296875 
" id="BitstreamVeraSans-Roman-70"/>
     </defs>
     <g transform="translate(268.449375 418.531875)scale(0.12 -0.12)">
      <use xlink:href="#BitstreamVeraSans-Roman-74"/>
      <use x="39.208984375" xlink:href="#BitstreamVeraSans-Roman-6f"/>
      <use x="100.390625" xlink:href="#BitstreamVeraSans-Roman-70"/>
      <use x="163.8671875" xlink:href="#BitstreamVeraSans-Roman-20"/>
      <use x="195.654296875" xlink:href="#BitstreamVeraSans-Roman-35"/>
      <use x="259.27734375" xlink:href="#BitstreamVeraSans-Roman-20"/>
      <use x="291.064453125" xlink:href="#BitstreamVeraSans-Roman-73"/>
      <use x="343.1640625" xlink:href="#BitstreamVeraSans-Roman-74"/>
      <use x="382.373046875" xlink:href="#BitstreamVeraSans-Roman-64"/>
     </g>
    </g>
   </g>
   <g id="matplotlib.axis_2">
    <g id="ytick_1">
     <g id="line2d_15">
      <defs>
       <path d="M 0 0 
L 4 0 
" id="md0fcd47ca3" style="stroke:#000000;stroke-width:0.5;"/>
      </defs>
      <g>
       <use style="stroke:#000000;stroke-width:0.5;" x="72.0" xlink:href="#md0fcd47ca3" y="388.8"/>
      </g>
     </g>
     <g id="line2d_16">
      <defs>
       <path d="M 0 0 
L -4 0 
" id="m338f2e1db2" style="stroke:#000000;stroke-width:0.5;"/>
      </defs>
      <g>
       <use style="stroke:#000000;stroke-width:0.5;" x="518.4" xlink:href="#m338f2e1db2" y="388.8"/>
      </g>
     </g>
     <g id="text_9">
      <!-- −2 -->
      <g transform="translate(50.309375 392.11125)scale(0.12 -0.12)">
       <use xlink:href="#BitstreamVeraSans-Roman-2212"/>
       <use x="83.7890625" xlink:href="#BitstreamVeraSans-Roman-32"/>
      </g>
     </g>
    </g>
    <g id="ytick_2">
     <g id="line2d_17">
      <g>
       <use style="stroke:#000000;stroke-width:0.5;" x="72.0" xlink:href="#md0fcd47ca3" y="350.4"/>
      </g>
     </g>
     <g id="line2d_18">
      <g>
       <use style="stroke:#000000;stroke-width:0.5;" x="518.4" xlink:href="#m338f2e1db2" y="350.4"/>
      </g>
     </g>
     <g id="text_10">
      <!-- 0 -->
      <g transform="translate(60.365 353.71125)scale(0.12 -0.12)">
       <use xlink:href="#BitstreamVeraSans-Roman-30"/>
      </g>
     </g>
    </g>
    <g id="ytick_3">
     <g id="line2d_19">
      <g>
       <use style="stroke:#000000;stroke-width:0.5;" x="72.0" xlink:href="#md0fcd47ca3" y="312.0"/>
      </g>
     </g>
     <g id="line2d_20">
      <g>
       <use style="stroke:#000000;stroke-width:0.5;" x="518.4" xlink:href="#m338f2e1db2" y="312.0"/>
      </g>
     </g>
     <g id="text_11">
      <!-- 2 -->
      <g transform="translate(60.365 315.31125)scale(0.12 -0.12)">
       <use xlink:href="#BitstreamVeraSans-Roman-32"/>
      </g>
     </g>
    </g>
    <g id="ytick_4">
     <g id="line2d_21">
      <g>
       <use style="stroke:#000000;stroke-width:0.5;" x="72.0" xlink:href="#md0fcd47ca3" y="273.6"/>
      </g>
     </g>
     <g id="line2d_22">
      <g>
       <use style="stroke:#000000;stroke-width:0.5;" x="518.4" xlink:href="#m338f2e1db2" y="273.6"/>
      </g>
     </g>
     <g id="text_12">
      <!-- 4 -->
      <g transform="translate(60.365 276.91125)scale(0.12 -0.12)">
       <use xlink:href="#BitstreamVeraSans-Roman-34"/>
      </g>
     </g>
    </g>
    <g id="ytick_5">
     <g id="line2d_23">
      <g>
       <use style="stroke:#000000;stroke-width:0.5;" x="72.0" xlink:href="#md0fcd47ca3" y="235.2"/>
      </g>
     </g>
     <g id="line2d_24">
      <g>
       <use style="stroke:#000000;stroke-width:0.5;" x="518.4" xlink:href="#m338f2e1db2" y="235.2"/>
      </g>
     </g>
     <g id="text_13">
      <!-- 6 -->
      <defs>
       <path d="M 33.015625 40.375 
Q 26.375 40.375 22.484375 35.828125 
Q 18.609375 31.296875 18.609375 23.390625 
Q 18.609375 15.53125 22.484375 10.953125 
Q 26.375 6.390625 33.015625 6.390625 
Q 39.65625 6.390625 43.53125 10.953125 
Q 47.40625 15.53125 47.40625 23.390625 
Q 47.40625 31.296875 43.53125 35.828125 
Q 39.65625 40.375 33.015625 40.375 
M 52.59375 71.296875 
L 52.59375 62.3125 
Q 48.875 64.0625 45.09375 64.984375 
Q 41.3125 65.921875 37.59375 65.921875 
Q 27.828125 65.921875 22.671875 59.328125 
Q 17.53125 52.734375 16.796875 39.40625 
Q 19.671875 43.65625 24.015625 45.921875 
Q 28.375 48.1875 33.59375 48.1875 
Q 44.578125 48.1875 50.953125 41.515625 
Q 57.328125 34.859375 57.328125 23.390625 
Q 57.328125 12.15625 50.6875 5.359375 
Q 44.046875 -1.421875 33.015625 -1.421875 
Q 20.359375 -1.421875 13.671875 8.265625 
Q 6.984375 17.96875 6.984375 36.375 
Q 6.984375 53.65625 15.1875 63.9375 
Q 23.390625 74.21875 37.203125 74.21875 
Q 40.921875 74.21875 44.703125 73.484375 
Q 48.484375 72.75 52.59375 71.296875 
" id="BitstreamVeraSans-Roman-36"/>
      </defs>
      <g transform="translate(60.365 238.51125)scale(0.12 -0.12)">
       <use xlink:href="#BitstreamVeraSans-Roman-36"/>
      </g>
     </g>
    </g>
    <g id="ytick_6">
     <g id="line2d_25">
      <g>
       <use style="stroke:#000000;stroke-width:0.5;" x="72.0" xlink:href="#md0fcd47ca3" y="196.8"/>
      </g>
     </g>
     <g id="line2d_26">
      <g>
       <use style="stroke:#000000;stroke-width:0.5;" x="518.4" xlink:href="#m338f2e1db2" y="196.8"/>
      </g>
     </g>
     <g id="text_14">
      <!-- 8 -->
      <defs>
       <path d="M 31.78125 34.625 
Q 24.75 34.625 20.71875 30.859375 
Q 16.703125 27.09375 16.703125 20.515625 
Q 16.703125 13.921875 20.71875 10.15625 
Q 24.75 6.390625 31.78125 6.390625 
Q 38.8125 6.390625 42.859375 10.171875 
Q 46.921875 13.96875 46.921875 20.515625 
Q 46.921875 27.09375 42.890625 30.859375 
Q 38.875 34.625 31.78125 34.625 
M 21.921875 38.8125 
Q 15.578125 40.375 12.03125 44.71875 
Q 8.5 49.078125 8.5 55.328125 
Q 8.5 64.0625 14.71875 69.140625 
Q 20.953125 74.21875 31.78125 74.21875 
Q 42.671875 74.21875 48.875 69.140625 
Q 55.078125 64.0625 55.078125 55.328125 
Q 55.078125 49.078125 51.53125 44.71875 
Q 48 40.375 41.703125 38.8125 
Q 48.828125 37.15625 52.796875 32.3125 
Q 56.78125 27.484375 56.78125 20.515625 
Q 56.78125 9.90625 50.3125 4.234375 
Q 43.84375 -1.421875 31.78125 -1.421875 
Q 19.734375 -1.421875 13.25 4.234375 
Q 6.78125 9.90625 6.78125 20.515625 
Q 6.78125 27.484375 10.78125 32.3125 
Q 14.796875 37.15625 21.921875 38.8125 
M 18.3125 54.390625 
Q 18.3125 48.734375 21.84375 45.5625 
Q 25.390625 42.390625 31.78125 42.390625 
Q 38.140625 42.390625 41.71875 45.5625 
Q 45.3125 48.734375 45.3125 54.390625 
Q 45.3125 60.0625 41.71875 63.234375 
Q 38.140625 66.40625 31.78125 66.40625 
Q 25.390625 66.40625 21.84375 63.234375 
Q 18.3125 60.0625 18.3125 54.390625 
" id="BitstreamVeraSans-Roman-38"/>
      </defs>
      <g transform="translate(60.365 200.11125)scale(0.12 -0.12)">
       <use xlink:href="#BitstreamVeraSans-Roman-38"/>
      </g>
     </g>
    </g>
    <g id="ytick_7">
     <g id="line2d_27">
      <g>
       <use style="stroke:#000000;stroke-width:0.5;" x="72.0" xlink:href="#md0fcd47ca3" y="158.4"/>
      </g>
     </g>
     <g id="line2d_28">
      <g>
       <use style="stroke:#000000;stroke-width:0.5;" x="518.4" xlink:href="#m338f2e1db2" y="158.4"/>
      </g>
     </g>
     <g id="text_15">
      <!-- 10 -->
      <g transform="translate(52.73 161.71125)scale(0.12 -0.12)">
       <use xlink:href="#BitstreamVeraSans-Roman-31"/>
       <use x="63.623046875" xlink:href="#BitstreamVeraSans-Roman-30"/>
      </g>
     </g>
    </g>
    <g id="ytick_8">
     <g id="line2d_29">
      <g>
       <use style="stroke:#000000;stroke-width:0.5;" x="72.0" xlink:href="#md0fcd47ca3" y="120.0"/>
      </g>
     </g>
     <g id="line2d_30">
      <g>
       <use style="stroke:#000000;stroke-width:0.5;" x="518.4" xlink:href="#m338f2e1db2" y="120.0"/>
      </g>
     </g>
     <g id="text_16">
      <!-- 12 -->
      <g transform="translate(52.73 123.31125)scale(0.12 -0.12)">
       <use xlink:href="#BitstreamVeraSans-Roman-31"/>
       <use x="63.623046875" xlink:href="#BitstreamVeraSans-Roman-32"/>
      </g>
     </g>
    </g>
    <g id="ytick_9">
     <g id="line2d_31">
      <g>
       <use style="stroke:#000000;stroke-width:0.5;" x="72.0" xlink:href="#md0fcd47ca3" y="81.6"/>
      </g>
     </g>
     <g id="line2d_32">
      <g>
       <use style="stroke:#000000;stroke-width:0.5;" x="518.4" xlink:href="#m338f2e1db2" y="81.6"/>
      </g>
     </g>
     <g id="text_17">
      <!-- 14 -->
      <g transform="translate(52.73 84.91125)scale(0.12 -0.12)">
       <use xlink:href="#BitstreamVeraSans-Roman-31"/>
       <use x="63.623046875" xlink:href="#BitstreamVeraSans-Roman-34"/>
      </g>
     </g>
    </g>
    <g id="ytick_10">
     <g id="line2d_33">
      <g>
       <use style="stroke:#000000;stroke-width:0.5;" x="72.0" xlink:href="#md0fcd47ca3" y="43.2"/>
      </g>
     </g>
     <g id="line2d_34">
      <g>
       <use style="stroke:#000000;stroke-width:0.5;" x="518.4" xlink:href="#m338f2e1db2" y="43.2"/>
      </g>
     </g>
     <g id="text_18">
      <!-- 16 -->
      <g transform="translate(52.73 46.51125)scale(0.12 -0.12)">
       <use xlink:href="#BitstreamVeraSans-Roman-31"/>
       <use x="63.623046875" xlink:href="#BitstreamVeraSans-Roman-36"/>
      </g>
     </g>
    </g>
    <g id="text_19">
     <!-- move rank -->
     <defs>
      <path d="M 54.890625 33.015625 
L 54.890625 0 
L 45.90625 0 
L 45.90625 32.71875 
Q 45.90625 40.484375 42.875 44.328125 
Q 39.84375 48.1875 33.796875 48.1875 
Q 26.515625 48.1875 22.3125 43.546875 
Q 18.109375 38.921875 18.109375 30.90625 
L 18.109375 0 
L 9.078125 0 
L 9.078125 54.6875 
L 18.109375 54.6875 
L 18.109375 46.1875 
Q 21.34375 51.125 25.703125 53.5625 
Q 30.078125 56 35.796875 56 
Q 45.21875 56 50.046875 50.171875 
Q 54.890625 44.34375 54.890625 33.015625 
" id="BitstreamVeraSans-Roman-6e"/>
      <path d="M 52 44.1875 
Q 55.375 50.25 60.0625 53.125 
Q 64.75 56 71.09375 56 
Q 79.640625 56 84.28125 50.015625 
Q 88.921875 44.046875 88.921875 33.015625 
L 88.921875 0 
L 79.890625 0 
L 79.890625 32.71875 
Q 79.890625 40.578125 77.09375 44.375 
Q 74.3125 48.1875 68.609375 48.1875 
Q 61.625 48.1875 57.5625 43.546875 
Q 53.515625 38.921875 53.515625 30.90625 
L 53.515625 0 
L 44.484375 0 
L 44.484375 32.71875 
Q 44.484375 40.625 41.703125 44.40625 
Q 38.921875 48.1875 33.109375 48.1875 
Q 26.21875 48.1875 22.15625 43.53125 
Q 18.109375 38.875 18.109375 30.90625 
L 18.109375 0 
L 9.078125 0 
L 9.078125 54.6875 
L 18.109375 54.6875 
L 18.109375 46.1875 
Q 21.1875 51.21875 25.484375 53.609375 
Q 29.78125 56 35.6875 56 
Q 41.65625 56 45.828125 52.96875 
Q 50 49.953125 52 44.1875 
" id="BitstreamVeraSans-Roman-6d"/>
      <path d="M 9.078125 75.984375 
L 18.109375 75.984375 
L 18.109375 31.109375 
L 44.921875 54.6875 
L 56.390625 54.6875 
L 27.390625 29.109375 
L 57.625 0 
L 45.90625 0 
L 18.109375 26.703125 
L 18.109375 0 
L 9.078125 0 
z
" id="BitstreamVeraSans-Roman-6b"/>
      <path d="M 56.203125 29.59375 
L 56.203125 25.203125 
L 14.890625 25.203125 
Q 15.484375 15.921875 20.484375 11.0625 
Q 25.484375 6.203125 34.421875 6.203125 
Q 39.59375 6.203125 44.453125 7.46875 
Q 49.3125 8.734375 54.109375 11.28125 
L 54.109375 2.78125 
Q 49.265625 0.734375 44.1875 -0.34375 
Q 39.109375 -1.421875 33.890625 -1.421875 
Q 20.796875 -1.421875 13.15625 6.1875 
Q 5.515625 13.8125 5.515625 26.8125 
Q 5.515625 40.234375 12.765625 48.109375 
Q 20.015625 56 32.328125 56 
Q 43.359375 56 49.78125 48.890625 
Q 56.203125 41.796875 56.203125 29.59375 
M 47.21875 32.234375 
Q 47.125 39.59375 43.09375 43.984375 
Q 39.0625 48.390625 32.421875 48.390625 
Q 24.90625 48.390625 20.390625 44.140625 
Q 15.875 39.890625 15.1875 32.171875 
z
" id="BitstreamVeraSans-Roman-65"/>
      <path d="M 2.984375 54.6875 
L 12.5 54.6875 
L 29.59375 8.796875 
L 46.6875 54.6875 
L 56.203125 54.6875 
L 35.6875 0 
L 23.484375 0 
z
" id="BitstreamVeraSans-Roman-76"/>
      <path d="M 34.28125 27.484375 
Q 23.390625 27.484375 19.1875 25 
Q 14.984375 22.515625 14.984375 16.5 
Q 14.984375 11.71875 18.140625 8.90625 
Q 21.296875 6.109375 26.703125 6.109375 
Q 34.1875 6.109375 38.703125 11.40625 
Q 43.21875 16.703125 43.21875 25.484375 
L 43.21875 27.484375 
z
M 52.203125 31.203125 
L 52.203125 0 
L 43.21875 0 
L 43.21875 8.296875 
Q 40.140625 3.328125 35.546875 0.953125 
Q 30.953125 -1.421875 24.3125 -1.421875 
Q 15.921875 -1.421875 10.953125 3.296875 
Q 6 8.015625 6 15.921875 
Q 6 25.140625 12.171875 29.828125 
Q 18.359375 34.515625 30.609375 34.515625 
L 43.21875 34.515625 
L 43.21875 35.40625 
Q 43.21875 41.609375 39.140625 45 
Q 35.0625 48.390625 27.6875 48.390625 
Q 23 48.390625 18.546875 47.265625 
Q 14.109375 46.140625 10.015625 43.890625 
L 10.015625 52.203125 
Q 14.9375 54.109375 19.578125 55.046875 
Q 24.21875 56 28.609375 56 
Q 40.484375 56 46.34375 49.84375 
Q 52.203125 43.703125 52.203125 31.203125 
" id="BitstreamVeraSans-Roman-61"/>
      <path d="M 41.109375 46.296875 
Q 39.59375 47.171875 37.8125 47.578125 
Q 36.03125 48 33.890625 48 
Q 26.265625 48 22.1875 43.046875 
Q 18.109375 38.09375 18.109375 28.8125 
L 18.109375 0 
L 9.078125 0 
L 9.078125 54.6875 
L 18.109375 54.6875 
L 18.109375 46.1875 
Q 20.953125 51.171875 25.484375 53.578125 
Q 30.03125 56 36.53125 56 
Q 37.453125 56 38.578125 55.875 
Q 39.703125 55.765625 41.0625 55.515625 
z
" id="BitstreamVeraSans-Roman-72"/>
     </defs>
     <g transform="translate(42.81375 248.0859375)rotate(-90.0)scale(0.12 -0.12)">
      <use xlink:href="#BitstreamVeraSans-Roman-6d"/>
      <use x="97.412109375" xlink:href="#BitstreamVeraSans-Roman-6f"/>
      <use x="158.59375" xlink:href="#BitstreamVeraSans-Roman-76"/>
      <use x="217.7734375" xlink:href="#BitstreamVeraSans-Roman-65"/>
      <use x="279.296875" xlink:href="#BitstreamVeraSans-Roman-20"/>
      <use x="311.083984375" xlink:href="#BitstreamVeraSans-Roman-72"/>
      <use x="352.197265625" xlink:href="#BitstreamVeraSans-Roman-61"/>
      <use x="413.4765625" xlink:href="#BitstreamVeraSans-Roman-6e"/>
      <use x="476.85546875" xlink:href="#BitstreamVeraSans-Roman-6b"/>
     </g>
    </g>
   </g>
  </g>
 </g>
 <defs>
  <clipPath id="p8768bd4836">
   <rect height="345.6" width="446.4" x="72.0" y="43.2"/>
  </clipPath>
 </defs>
</svg>
