<?xml version="1.0" encoding="utf-8" standalone="no"?>
<!DOCTYPE svg PUBLIC "-//W3C//DTD SVG 1.1//EN"
  "http://www.w3.org/Graphics/SVG/1.1/DTD/svg11.dtd">
<!-- Created with matplotlib (http://matplotlib.org/) -->
<svg height="432pt" version="1.1" viewBox="0 0 576 432" width="576pt" xmlns="http://www.w3.org/2000/svg" xmlns:xlink="http://www.w3.org/1999/xlink">
 <defs>
  <style type="text/css">
*{stroke-linecap:butt;stroke-linejoin:round;stroke-miterlimit:100000;}
  </style>
 </defs>
 <g id="figure_1">
  <g id="patch_1">
   <path d="M 0 432 
L 576 432 
L 576 0 
L 0 0 
z
" style="fill:#ffffff;"/>
  </g>
  <g id="axes_1">
   <g id="patch_2">
    <path d="M 72 388.8 
L 518.4 388.8 
L 518.4 43.2 
L 72 43.2 
z
" style="fill:#ffffff;"/>
   </g>
   <g id="PathCollection_1">
    <defs>
     <path d="M 0 2.236068 
C 0.593012 2.236068 1.161816 2.000462 1.581139 1.581139 
C 2.000462 1.161816 2.236068 0.593012 2.236068 0 
C 2.236068 -0.593012 2.000462 -1.161816 1.581139 -1.581139 
C 1.161816 -2.000462 0.593012 -2.236068 0 -2.236068 
C -0.593012 -2.236068 -1.161816 -2.000462 -1.581139 -1.581139 
C -2.000462 -1.161816 -2.236068 -0.593012 -2.236068 0 
C -2.236068 0.593012 -2.000462 1.161816 -1.581139 1.581139 
C -1.161816 2.000462 -0.593012 2.236068 0 2.236068 
z
" id="ma738796d83" style="stroke:#000000;"/>
    </defs>
    <g clip-path="url(#pefbfb44868)">
     <use style="fill:#0000ff;stroke:#000000;" x="171.2" xlink:href="#ma738796d83" y="346.2912"/>
     <use style="fill:#0000ff;stroke:#000000;" x="245.6" xlink:href="#ma738796d83" y="341.4528"/>
     <use style="fill:#0000ff;stroke:#000000;" x="121.6" xlink:href="#ma738796d83" y="354.24"/>
     <use style="fill:#0000ff;stroke:#000000;" x="146.4" xlink:href="#ma738796d83" y="353.5488"/>
     <use style="fill:#0000ff;stroke:#000000;" x="121.6" xlink:href="#ma738796d83" y="354.24"/>
     <use style="fill:#0000ff;stroke:#000000;" x="121.6" xlink:href="#ma738796d83" y="354.24"/>
     <use style="fill:#0000ff;stroke:#000000;" x="121.6" xlink:href="#ma738796d83" y="354.24"/>
     <use style="fill:#0000ff;stroke:#000000;" x="146.4" xlink:href="#ma738796d83" y="352.8576"/>
     <use style="fill:#0000ff;stroke:#000000;" x="121.6" xlink:href="#ma738796d83" y="354.24"/>
     <use style="fill:#0000ff;stroke:#000000;" x="121.6" xlink:href="#ma738796d83" y="354.24"/>
     <use style="fill:#0000ff;stroke:#000000;" x="220.8" xlink:href="#ma738796d83" y="345.9456"/>
     <use style="fill:#0000ff;stroke:#000000;" x="245.6" xlink:href="#ma738796d83" y="337.3056"/>
     <use style="fill:#0000ff;stroke:#000000;" x="121.6" xlink:href="#ma738796d83" y="354.24"/>
     <use style="fill:#0000ff;stroke:#000000;" x="146.4" xlink:href="#ma738796d83" y="341.1072"/>
     <use style="fill:#0000ff;stroke:#000000;" x="146.4" xlink:href="#ma738796d83" y="350.4384"/>
     <use style="fill:#0000ff;stroke:#000000;" x="171.2" xlink:href="#ma738796d83" y="352.8576"/>
     <use style="fill:#0000ff;stroke:#000000;" x="121.6" xlink:href="#ma738796d83" y="354.24"/>
     <use style="fill:#0000ff;stroke:#000000;" x="344.8" xlink:href="#ma738796d83" y="345.2544"/>
     <use style="fill:#0000ff;stroke:#000000;" x="220.8" xlink:href="#ma738796d83" y="337.6512"/>
     <use style="fill:#0000ff;stroke:#000000;" x="171.2" xlink:href="#ma738796d83" y="345.9456"/>
     <use style="fill:#0000ff;stroke:#000000;" x="295.2" xlink:href="#ma738796d83" y="326.9376"/>
     <use style="fill:#0000ff;stroke:#000000;" x="171.2" xlink:href="#ma738796d83" y="343.5264"/>
     <use style="fill:#0000ff;stroke:#000000;" x="146.4" xlink:href="#ma738796d83" y="353.5488"/>
     <use style="fill:#0000ff;stroke:#000000;" x="121.6" xlink:href="#ma738796d83" y="354.24"/>
     <use style="fill:#0000ff;stroke:#000000;" x="146.4" xlink:href="#ma738796d83" y="351.4752"/>
     <use style="fill:#0000ff;stroke:#000000;" x="394.4" xlink:href="#ma738796d83" y="333.504"/>
     <use style="fill:#0000ff;stroke:#000000;" x="121.6" xlink:href="#ma738796d83" y="354.24"/>
     <use style="fill:#0000ff;stroke:#000000;" x="220.8" xlink:href="#ma738796d83" y="349.4016"/>
     <use style="fill:#0000ff;stroke:#000000;" x="121.6" xlink:href="#ma738796d83" y="354.24"/>
     <use style="fill:#0000ff;stroke:#000000;" x="295.2" xlink:href="#ma738796d83" y="313.1136"/>
     <use style="fill:#0000ff;stroke:#000000;" x="220.8" xlink:href="#ma738796d83" y="276.1344"/>
     <use style="fill:#0000ff;stroke:#000000;" x="171.2" xlink:href="#ma738796d83" y="308.2752"/>
     <use style="fill:#0000ff;stroke:#000000;" x="171.2" xlink:href="#ma738796d83" y="189.0432"/>
     <use style="fill:#0000ff;stroke:#000000;" x="369.6" xlink:href="#ma738796d83" y="354.24"/>
     <use style="fill:#0000ff;stroke:#000000;" x="146.4" xlink:href="#ma738796d83" y="353.8944"/>
     <use style="fill:#0000ff;stroke:#000000;" x="196.0" xlink:href="#ma738796d83" y="344.2176"/>
     <use style="fill:#0000ff;stroke:#000000;" x="146.4" xlink:href="#ma738796d83" y="350.0928"/>
     <use style="fill:#0000ff;stroke:#000000;" x="146.4" xlink:href="#ma738796d83" y="349.4016"/>
     <use style="fill:#0000ff;stroke:#000000;" x="121.6" xlink:href="#ma738796d83" y="354.24"/>
     <use style="fill:#0000ff;stroke:#000000;" x="121.6" xlink:href="#ma738796d83" y="354.24"/>
     <use style="fill:#0000ff;stroke:#000000;" x="196.0" xlink:href="#ma738796d83" y="339.7248"/>
     <use style="fill:#0000ff;stroke:#000000;" x="171.2" xlink:href="#ma738796d83" y="324.864"/>
     <use style="fill:#0000ff;stroke:#000000;" x="121.6" xlink:href="#ma738796d83" y="354.24"/>
     <use style="fill:#0000ff;stroke:#000000;" x="196.0" xlink:href="#ma738796d83" y="339.3792"/>
     <use style="fill:#0000ff;stroke:#000000;" x="121.6" xlink:href="#ma738796d83" y="354.24"/>
     <use style="fill:#0000ff;stroke:#000000;" x="245.6" xlink:href="#ma738796d83" y="340.0704"/>
     <use style="fill:#0000ff;stroke:#000000;" x="121.6" xlink:href="#ma738796d83" y="354.24"/>
     <use style="fill:#0000ff;stroke:#000000;" x="369.6" xlink:href="#ma738796d83" y="331.4304"/>
     <use style="fill:#0000ff;stroke:#000000;" x="220.8" xlink:href="#ma738796d83" y="342.4896"/>
     <use style="fill:#0000ff;stroke:#000000;" x="121.6" xlink:href="#ma738796d83" y="354.24"/>
     <use style="fill:#0000ff;stroke:#000000;" x="121.6" xlink:href="#ma738796d83" y="354.24"/>
     <use style="fill:#0000ff;stroke:#000000;" x="146.4" xlink:href="#ma738796d83" y="340.7616"/>
     <use style="fill:#0000ff;stroke:#000000;" x="171.2" xlink:href="#ma738796d83" y="331.776"/>
     <use style="fill:#0000ff;stroke:#000000;" x="171.2" xlink:href="#ma738796d83" y="312.768"/>
     <use style="fill:#0000ff;stroke:#000000;" x="121.6" xlink:href="#ma738796d83" y="354.24"/>
     <use style="fill:#0000ff;stroke:#000000;" x="121.6" xlink:href="#ma738796d83" y="354.24"/>
     <use style="fill:#0000ff;stroke:#000000;" x="121.6" xlink:href="#ma738796d83" y="354.24"/>
     <use style="fill:#0000ff;stroke:#000000;" x="196.0" xlink:href="#ma738796d83" y="342.4896"/>
     <use style="fill:#0000ff;stroke:#000000;" x="121.6" xlink:href="#ma738796d83" y="354.24"/>
     <use style="fill:#0000ff;stroke:#000000;" x="444.0" xlink:href="#ma738796d83" y="222.912"/>
     <use style="fill:#0000ff;stroke:#000000;" x="146.4" xlink:href="#ma738796d83" y="341.7984"/>
     <use style="fill:#0000ff;stroke:#000000;" x="220.8" xlink:href="#ma738796d83" y="318.2976"/>
     <use style="fill:#0000ff;stroke:#000000;" x="121.6" xlink:href="#ma738796d83" y="354.24"/>
     <use style="fill:#0000ff;stroke:#000000;" x="245.6" xlink:href="#ma738796d83" y="290.9952"/>
     <use style="fill:#0000ff;stroke:#000000;" x="444.0" xlink:href="#ma738796d83" y="331.0848"/>
     <use style="fill:#0000ff;stroke:#000000;" x="121.6" xlink:href="#ma738796d83" y="354.24"/>
     <use style="fill:#0000ff;stroke:#000000;" x="121.6" xlink:href="#ma738796d83" y="354.24"/>
     <use style="fill:#0000ff;stroke:#000000;" x="245.6" xlink:href="#ma738796d83" y="346.9824"/>
     <use style="fill:#0000ff;stroke:#000000;" x="146.4" xlink:href="#ma738796d83" y="351.1296"/>
     <use style="fill:#0000ff;stroke:#000000;" x="121.6" xlink:href="#ma738796d83" y="354.24"/>
     <use style="fill:#0000ff;stroke:#000000;" x="146.4" xlink:href="#ma738796d83" y="352.512"/>
     <use style="fill:#0000ff;stroke:#000000;" x="146.4" xlink:href="#ma738796d83" y="352.8576"/>
     <use style="fill:#0000ff;stroke:#000000;" x="121.6" xlink:href="#ma738796d83" y="354.24"/>
     <use style="fill:#0000ff;stroke:#000000;" x="146.4" xlink:href="#ma738796d83" y="352.512"/>
     <use style="fill:#0000ff;stroke:#000000;" x="146.4" xlink:href="#ma738796d83" y="353.2032"/>
     <use style="fill:#0000ff;stroke:#000000;" x="121.6" xlink:href="#ma738796d83" y="354.24"/>
     <use style="fill:#0000ff;stroke:#000000;" x="196.0" xlink:href="#ma738796d83" y="349.056"/>
     <use style="fill:#0000ff;stroke:#000000;" x="171.2" xlink:href="#ma738796d83" y="351.4752"/>
     <use style="fill:#0000ff;stroke:#000000;" x="196.0" xlink:href="#ma738796d83" y="341.1072"/>
     <use style="fill:#0000ff;stroke:#000000;" x="320.0" xlink:href="#ma738796d83" y="323.8272"/>
     <use style="fill:#0000ff;stroke:#000000;" x="121.6" xlink:href="#ma738796d83" y="354.24"/>
     <use style="fill:#0000ff;stroke:#000000;" x="171.2" xlink:href="#ma738796d83" y="340.416"/>
     <use style="fill:#0000ff;stroke:#000000;" x="146.4" xlink:href="#ma738796d83" y="341.4528"/>
     <use style="fill:#0000ff;stroke:#000000;" x="121.6" xlink:href="#ma738796d83" y="354.24"/>
     <use style="fill:#0000ff;stroke:#000000;" x="121.6" xlink:href="#ma738796d83" y="354.24"/>
     <use style="fill:#0000ff;stroke:#000000;" x="121.6" xlink:href="#ma738796d83" y="354.24"/>
     <use style="fill:#0000ff;stroke:#000000;" x="121.6" xlink:href="#ma738796d83" y="354.24"/>
     <use style="fill:#0000ff;stroke:#000000;" x="121.6" xlink:href="#ma738796d83" y="354.24"/>
     <use style="fill:#0000ff;stroke:#000000;" x="295.2" xlink:href="#ma738796d83" y="342.8352"/>
     <use style="fill:#0000ff;stroke:#000000;" x="171.2" xlink:href="#ma738796d83" y="348.7104"/>
     <use style="fill:#0000ff;stroke:#000000;" x="121.6" xlink:href="#ma738796d83" y="354.24"/>
     <use style="fill:#0000ff;stroke:#000000;" x="146.4" xlink:href="#ma738796d83" y="354.24"/>
     <use style="fill:#0000ff;stroke:#000000;" x="196.0" xlink:href="#ma738796d83" y="351.8208"/>
     <use style="fill:#0000ff;stroke:#000000;" x="121.6" xlink:href="#ma738796d83" y="354.24"/>
     <use style="fill:#0000ff;stroke:#000000;" x="394.4" xlink:href="#ma738796d83" y="335.232"/>
     <use style="fill:#0000ff;stroke:#000000;" x="171.2" xlink:href="#ma738796d83" y="351.4752"/>
     <use style="fill:#0000ff;stroke:#000000;" x="121.6" xlink:href="#ma738796d83" y="354.24"/>
     <use style="fill:#0000ff;stroke:#000000;" x="121.6" xlink:href="#ma738796d83" y="354.24"/>
     <use style="fill:#0000ff;stroke:#000000;" x="146.4" xlink:href="#ma738796d83" y="344.9088"/>
     <use style="fill:#0000ff;stroke:#000000;" x="146.4" xlink:href="#ma738796d83" y="349.7472"/>
     <use style="fill:#0000ff;stroke:#000000;" x="196.0" xlink:href="#ma738796d83" y="349.056"/>
     <use style="fill:#0000ff;stroke:#000000;" x="171.2" xlink:href="#ma738796d83" y="349.4016"/>
     <use style="fill:#0000ff;stroke:#000000;" x="121.6" xlink:href="#ma738796d83" y="354.24"/>
     <use style="fill:#0000ff;stroke:#000000;" x="196.0" xlink:href="#ma738796d83" y="340.0704"/>
     <use style="fill:#0000ff;stroke:#000000;" x="146.4" xlink:href="#ma738796d83" y="350.784"/>
     <use style="fill:#0000ff;stroke:#000000;" x="444.0" xlink:href="#ma738796d83" y="84.3264"/>
     <use style="fill:#0000ff;stroke:#000000;" x="146.4" xlink:href="#ma738796d83" y="350.0928"/>
     <use style="fill:#0000ff;stroke:#000000;" x="196.0" xlink:href="#ma738796d83" y="347.6736"/>
     <use style="fill:#0000ff;stroke:#000000;" x="121.6" xlink:href="#ma738796d83" y="354.24"/>
     <use style="fill:#0000ff;stroke:#000000;" x="171.2" xlink:href="#ma738796d83" y="348.7104"/>
     <use style="fill:#0000ff;stroke:#000000;" x="146.4" xlink:href="#ma738796d83" y="350.784"/>
     <use style="fill:#0000ff;stroke:#000000;" x="146.4" xlink:href="#ma738796d83" y="341.7984"/>
     <use style="fill:#0000ff;stroke:#000000;" x="121.6" xlink:href="#ma738796d83" y="354.24"/>
     <use style="fill:#0000ff;stroke:#000000;" x="121.6" xlink:href="#ma738796d83" y="354.24"/>
     <use style="fill:#0000ff;stroke:#000000;" x="121.6" xlink:href="#ma738796d83" y="354.24"/>
     <use style="fill:#0000ff;stroke:#000000;" x="493.6" xlink:href="#ma738796d83" y="333.504"/>
     <use style="fill:#0000ff;stroke:#000000;" x="121.6" xlink:href="#ma738796d83" y="354.24"/>
     <use style="fill:#0000ff;stroke:#000000;" x="146.4" xlink:href="#ma738796d83" y="348.7104"/>
     <use style="fill:#0000ff;stroke:#000000;" x="146.4" xlink:href="#ma738796d83" y="347.328"/>
     <use style="fill:#0000ff;stroke:#000000;" x="121.6" xlink:href="#ma738796d83" y="354.24"/>
     <use style="fill:#0000ff;stroke:#000000;" x="121.6" xlink:href="#ma738796d83" y="354.24"/>
     <use style="fill:#0000ff;stroke:#000000;" x="171.2" xlink:href="#ma738796d83" y="351.8208"/>
     <use style="fill:#0000ff;stroke:#000000;" x="196.0" xlink:href="#ma738796d83" y="351.1296"/>
     <use style="fill:#0000ff;stroke:#000000;" x="220.8" xlink:href="#ma738796d83" y="351.4752"/>
     <use style="fill:#0000ff;stroke:#000000;" x="121.6" xlink:href="#ma738796d83" y="354.24"/>
     <use style="fill:#0000ff;stroke:#000000;" x="121.6" xlink:href="#ma738796d83" y="354.24"/>
     <use style="fill:#0000ff;stroke:#000000;" x="320.0" xlink:href="#ma738796d83" y="340.416"/>
     <use style="fill:#0000ff;stroke:#000000;" x="245.6" xlink:href="#ma738796d83" y="346.9824"/>
     <use style="fill:#0000ff;stroke:#000000;" x="146.4" xlink:href="#ma738796d83" y="353.5488"/>
     <use style="fill:#0000ff;stroke:#000000;" x="121.6" xlink:href="#ma738796d83" y="354.24"/>
     <use style="fill:#0000ff;stroke:#000000;" x="121.6" xlink:href="#ma738796d83" y="354.24"/>
     <use style="fill:#0000ff;stroke:#000000;" x="121.6" xlink:href="#ma738796d83" y="354.24"/>
     <use style="fill:#0000ff;stroke:#000000;" x="146.4" xlink:href="#ma738796d83" y="351.4752"/>
     <use style="fill:#0000ff;stroke:#000000;" x="121.6" xlink:href="#ma738796d83" y="354.24"/>
     <use style="fill:#0000ff;stroke:#000000;" x="171.2" xlink:href="#ma738796d83" y="331.776"/>
     <use style="fill:#0000ff;stroke:#000000;" x="171.2" xlink:href="#ma738796d83" y="341.7984"/>
     <use style="fill:#0000ff;stroke:#000000;" x="121.6" xlink:href="#ma738796d83" y="354.24"/>
     <use style="fill:#0000ff;stroke:#000000;" x="121.6" xlink:href="#ma738796d83" y="354.24"/>
     <use style="fill:#0000ff;stroke:#000000;" x="196.0" xlink:href="#ma738796d83" y="284.7744"/>
     <use style="fill:#0000ff;stroke:#000000;" x="171.2" xlink:href="#ma738796d83" y="340.7616"/>
     <use style="fill:#0000ff;stroke:#000000;" x="196.0" xlink:href="#ma738796d83" y="353.8944"/>
     <use style="fill:#0000ff;stroke:#000000;" x="196.0" xlink:href="#ma738796d83" y="352.8576"/>
     <use style="fill:#0000ff;stroke:#000000;" x="270.4" xlink:href="#ma738796d83" y="333.1584"/>
     <use style="fill:#0000ff;stroke:#000000;" x="196.0" xlink:href="#ma738796d83" y="347.328"/>
     <use style="fill:#0000ff;stroke:#000000;" x="245.6" xlink:href="#ma738796d83" y="342.8352"/>
     <use style="fill:#0000ff;stroke:#000000;" x="171.2" xlink:href="#ma738796d83" y="349.4016"/>
     <use style="fill:#0000ff;stroke:#000000;" x="419.2" xlink:href="#ma738796d83" y="335.232"/>
     <use style="fill:#0000ff;stroke:#000000;" x="196.0" xlink:href="#ma738796d83" y="347.328"/>
     <use style="fill:#0000ff;stroke:#000000;" x="121.6" xlink:href="#ma738796d83" y="354.24"/>
     <use style="fill:#0000ff;stroke:#000000;" x="121.6" xlink:href="#ma738796d83" y="354.24"/>
     <use style="fill:#0000ff;stroke:#000000;" x="171.2" xlink:href="#ma738796d83" y="352.1664"/>
     <use style="fill:#0000ff;stroke:#000000;" x="196.0" xlink:href="#ma738796d83" y="352.512"/>
     <use style="fill:#0000ff;stroke:#000000;" x="320.0" xlink:href="#ma738796d83" y="335.232"/>
     <use style="fill:#0000ff;stroke:#000000;" x="394.4" xlink:href="#ma738796d83" y="332.1216"/>
     <use style="fill:#0000ff;stroke:#000000;" x="121.6" xlink:href="#ma738796d83" y="354.24"/>
     <use style="fill:#0000ff;stroke:#000000;" x="121.6" xlink:href="#ma738796d83" y="354.24"/>
     <use style="fill:#0000ff;stroke:#000000;" x="171.2" xlink:href="#ma738796d83" y="345.6"/>
     <use style="fill:#0000ff;stroke:#000000;" x="121.6" xlink:href="#ma738796d83" y="354.24"/>
     <use style="fill:#0000ff;stroke:#000000;" x="220.8" xlink:href="#ma738796d83" y="346.9824"/>
     <use style="fill:#0000ff;stroke:#000000;" x="171.2" xlink:href="#ma738796d83" y="348.0192"/>
     <use style="fill:#0000ff;stroke:#000000;" x="121.6" xlink:href="#ma738796d83" y="354.24"/>
     <use style="fill:#0000ff;stroke:#000000;" x="220.8" xlink:href="#ma738796d83" y="346.9824"/>
     <use style="fill:#0000ff;stroke:#000000;" x="121.6" xlink:href="#ma738796d83" y="354.24"/>
     <use style="fill:#0000ff;stroke:#000000;" x="146.4" xlink:href="#ma738796d83" y="333.504"/>
     <use style="fill:#0000ff;stroke:#000000;" x="146.4" xlink:href="#ma738796d83" y="342.4896"/>
     <use style="fill:#0000ff;stroke:#000000;" x="146.4" xlink:href="#ma738796d83" y="350.784"/>
     <use style="fill:#0000ff;stroke:#000000;" x="121.6" xlink:href="#ma738796d83" y="354.24"/>
     <use style="fill:#0000ff;stroke:#000000;" x="121.6" xlink:href="#ma738796d83" y="354.24"/>
     <use style="fill:#0000ff;stroke:#000000;" x="121.6" xlink:href="#ma738796d83" y="354.24"/>
     <use style="fill:#0000ff;stroke:#000000;" x="146.4" xlink:href="#ma738796d83" y="342.8352"/>
     <use style="fill:#0000ff;stroke:#000000;" x="121.6" xlink:href="#ma738796d83" y="354.24"/>
     <use style="fill:#0000ff;stroke:#000000;" x="245.6" xlink:href="#ma738796d83" y="168.3072"/>
     <use style="fill:#0000ff;stroke:#000000;" x="444.0" xlink:href="#ma738796d83" y="305.1648"/>
     <use style="fill:#0000ff;stroke:#000000;" x="121.6" xlink:href="#ma738796d83" y="354.24"/>
     <use style="fill:#0000ff;stroke:#000000;" x="121.6" xlink:href="#ma738796d83" y="354.24"/>
     <use style="fill:#0000ff;stroke:#000000;" x="121.6" xlink:href="#ma738796d83" y="354.24"/>
     <use style="fill:#0000ff;stroke:#000000;" x="121.6" xlink:href="#ma738796d83" y="354.24"/>
     <use style="fill:#0000ff;stroke:#000000;" x="121.6" xlink:href="#ma738796d83" y="354.24"/>
     <use style="fill:#0000ff;stroke:#000000;" x="121.6" xlink:href="#ma738796d83" y="354.24"/>
    </g>
   </g>
   <g id="patch_3">
    <path d="M 72 43.2 
L 518.4 43.2 
" style="fill:none;stroke:#000000;stroke-linecap:square;stroke-linejoin:miter;"/>
   </g>
   <g id="patch_4">
    <path d="M 518.4 388.8 
L 518.4 43.2 
" style="fill:none;stroke:#000000;stroke-linecap:square;stroke-linejoin:miter;"/>
   </g>
   <g id="patch_5">
    <path d="M 72 388.8 
L 518.4 388.8 
" style="fill:none;stroke:#000000;stroke-linecap:square;stroke-linejoin:miter;"/>
   </g>
   <g id="patch_6">
    <path d="M 72 388.8 
L 72 43.2 
" style="fill:none;stroke:#000000;stroke-linecap:square;stroke-linejoin:miter;"/>
   </g>
   <g id="matplotlib.axis_1">
    <g id="xtick_1">
     <g id="line2d_1">
      <defs>
       <path d="M 0 0 
L 0 -4 
" id="m521c79b04a" style="stroke:#000000;stroke-width:0.5;"/>
      </defs>
      <g>
       <use style="stroke:#000000;stroke-width:0.5;" x="72.0" xlink:href="#m521c79b04a" y="388.8"/>
      </g>
     </g>
     <g id="line2d_2">
      <defs>
       <path d="M 0 0 
L 0 4 
" id="m368af149f0" style="stroke:#000000;stroke-width:0.5;"/>
      </defs>
      <g>
       <use style="stroke:#000000;stroke-width:0.5;" x="72.0" xlink:href="#m368af149f0" y="43.2"/>
      </g>
     </g>
     <g id="text_1">
      <!-- −2 -->
      <defs>
       <path d="M 10.59375 35.5 
L 73.1875 35.5 
L 73.1875 27.203125 
L 10.59375 27.203125 
z
" id="BitstreamVeraSans-Roman-2212"/>
       <path d="M 19.1875 8.296875 
L 53.609375 8.296875 
L 53.609375 0 
L 7.328125 0 
L 7.328125 8.296875 
Q 12.9375 14.109375 22.625 23.890625 
Q 32.328125 33.6875 34.8125 36.53125 
Q 39.546875 41.84375 41.421875 45.53125 
Q 43.3125 49.21875 43.3125 52.78125 
Q 43.3125 58.59375 39.234375 62.25 
Q 35.15625 65.921875 28.609375 65.921875 
Q 23.96875 65.921875 18.8125 64.3125 
Q 13.671875 62.703125 7.8125 59.421875 
L 7.8125 69.390625 
Q 13.765625 71.78125 18.9375 73 
Q 24.125 74.21875 28.421875 74.21875 
Q 39.75 74.21875 46.484375 68.546875 
Q 53.21875 62.890625 53.21875 53.421875 
Q 53.21875 48.921875 51.53125 44.890625 
Q 49.859375 40.875 45.40625 35.40625 
Q 44.1875 33.984375 37.640625 27.21875 
Q 31.109375 20.453125 19.1875 8.296875 
" id="BitstreamVeraSans-Roman-32"/>
      </defs>
      <g transform="translate(63.1546875 401.918125)scale(0.12 -0.12)">
       <use xlink:href="#BitstreamVeraSans-Roman-2212"/>
       <use x="83.7890625" xlink:href="#BitstreamVeraSans-Roman-32"/>
      </g>
     </g>
    </g>
    <g id="xtick_2">
     <g id="line2d_3">
      <g>
       <use style="stroke:#000000;stroke-width:0.5;" x="121.6" xlink:href="#m521c79b04a" y="388.8"/>
      </g>
     </g>
     <g id="line2d_4">
      <g>
       <use style="stroke:#000000;stroke-width:0.5;" x="121.6" xlink:href="#m368af149f0" y="43.2"/>
      </g>
     </g>
     <g id="text_2">
      <!-- 0 -->
      <defs>
       <path d="M 31.78125 66.40625 
Q 24.171875 66.40625 20.328125 58.90625 
Q 16.5 51.421875 16.5 36.375 
Q 16.5 21.390625 20.328125 13.890625 
Q 24.171875 6.390625 31.78125 6.390625 
Q 39.453125 6.390625 43.28125 13.890625 
Q 47.125 21.390625 47.125 36.375 
Q 47.125 51.421875 43.28125 58.90625 
Q 39.453125 66.40625 31.78125 66.40625 
M 31.78125 74.21875 
Q 44.046875 74.21875 50.515625 64.515625 
Q 56.984375 54.828125 56.984375 36.375 
Q 56.984375 17.96875 50.515625 8.265625 
Q 44.046875 -1.421875 31.78125 -1.421875 
Q 19.53125 -1.421875 13.0625 8.265625 
Q 6.59375 17.96875 6.59375 36.375 
Q 6.59375 54.828125 13.0625 64.515625 
Q 19.53125 74.21875 31.78125 74.21875 
" id="BitstreamVeraSans-Roman-30"/>
      </defs>
      <g transform="translate(117.7825 401.918125)scale(0.12 -0.12)">
       <use xlink:href="#BitstreamVeraSans-Roman-30"/>
      </g>
     </g>
    </g>
    <g id="xtick_3">
     <g id="line2d_5">
      <g>
       <use style="stroke:#000000;stroke-width:0.5;" x="171.2" xlink:href="#m521c79b04a" y="388.8"/>
      </g>
     </g>
     <g id="line2d_6">
      <g>
       <use style="stroke:#000000;stroke-width:0.5;" x="171.2" xlink:href="#m368af149f0" y="43.2"/>
      </g>
     </g>
     <g id="text_3">
      <!-- 2 -->
      <g transform="translate(167.3825 401.918125)scale(0.12 -0.12)">
       <use xlink:href="#BitstreamVeraSans-Roman-32"/>
      </g>
     </g>
    </g>
    <g id="xtick_4">
     <g id="line2d_7">
      <g>
       <use style="stroke:#000000;stroke-width:0.5;" x="220.8" xlink:href="#m521c79b04a" y="388.8"/>
      </g>
     </g>
     <g id="line2d_8">
      <g>
       <use style="stroke:#000000;stroke-width:0.5;" x="220.8" xlink:href="#m368af149f0" y="43.2"/>
      </g>
     </g>
     <g id="text_4">
      <!-- 4 -->
      <defs>
       <path d="M 37.796875 64.3125 
L 12.890625 25.390625 
L 37.796875 25.390625 
z
M 35.203125 72.90625 
L 47.609375 72.90625 
L 47.609375 25.390625 
L 58.015625 25.390625 
L 58.015625 17.1875 
L 47.609375 17.1875 
L 47.609375 0 
L 37.796875 0 
L 37.796875 17.1875 
L 4.890625 17.1875 
L 4.890625 26.703125 
z
" id="BitstreamVeraSans-Roman-34"/>
      </defs>
      <g transform="translate(216.9825 401.918125)scale(0.12 -0.12)">
       <use xlink:href="#BitstreamVeraSans-Roman-34"/>
      </g>
     </g>
    </g>
    <g id="xtick_5">
     <g id="line2d_9">
      <g>
       <use style="stroke:#000000;stroke-width:0.5;" x="270.4" xlink:href="#m521c79b04a" y="388.8"/>
      </g>
     </g>
     <g id="line2d_10">
      <g>
       <use style="stroke:#000000;stroke-width:0.5;" x="270.4" xlink:href="#m368af149f0" y="43.2"/>
      </g>
     </g>
     <g id="text_5">
      <!-- 6 -->
      <defs>
       <path d="M 33.015625 40.375 
Q 26.375 40.375 22.484375 35.828125 
Q 18.609375 31.296875 18.609375 23.390625 
Q 18.609375 15.53125 22.484375 10.953125 
Q 26.375 6.390625 33.015625 6.390625 
Q 39.65625 6.390625 43.53125 10.953125 
Q 47.40625 15.53125 47.40625 23.390625 
Q 47.40625 31.296875 43.53125 35.828125 
Q 39.65625 40.375 33.015625 40.375 
M 52.59375 71.296875 
L 52.59375 62.3125 
Q 48.875 64.0625 45.09375 64.984375 
Q 41.3125 65.921875 37.59375 65.921875 
Q 27.828125 65.921875 22.671875 59.328125 
Q 17.53125 52.734375 16.796875 39.40625 
Q 19.671875 43.65625 24.015625 45.921875 
Q 28.375 48.1875 33.59375 48.1875 
Q 44.578125 48.1875 50.953125 41.515625 
Q 57.328125 34.859375 57.328125 23.390625 
Q 57.328125 12.15625 50.6875 5.359375 
Q 44.046875 -1.421875 33.015625 -1.421875 
Q 20.359375 -1.421875 13.671875 8.265625 
Q 6.984375 17.96875 6.984375 36.375 
Q 6.984375 53.65625 15.1875 63.9375 
Q 23.390625 74.21875 37.203125 74.21875 
Q 40.921875 74.21875 44.703125 73.484375 
Q 48.484375 72.75 52.59375 71.296875 
" id="BitstreamVeraSans-Roman-36"/>
      </defs>
      <g transform="translate(266.5825 401.918125)scale(0.12 -0.12)">
       <use xlink:href="#BitstreamVeraSans-Roman-36"/>
      </g>
     </g>
    </g>
    <g id="xtick_6">
     <g id="line2d_11">
      <g>
       <use style="stroke:#000000;stroke-width:0.5;" x="320.0" xlink:href="#m521c79b04a" y="388.8"/>
      </g>
     </g>
     <g id="line2d_12">
      <g>
       <use style="stroke:#000000;stroke-width:0.5;" x="320.0" xlink:href="#m368af149f0" y="43.2"/>
      </g>
     </g>
     <g id="text_6">
      <!-- 8 -->
      <defs>
       <path d="M 31.78125 34.625 
Q 24.75 34.625 20.71875 30.859375 
Q 16.703125 27.09375 16.703125 20.515625 
Q 16.703125 13.921875 20.71875 10.15625 
Q 24.75 6.390625 31.78125 6.390625 
Q 38.8125 6.390625 42.859375 10.171875 
Q 46.921875 13.96875 46.921875 20.515625 
Q 46.921875 27.09375 42.890625 30.859375 
Q 38.875 34.625 31.78125 34.625 
M 21.921875 38.8125 
Q 15.578125 40.375 12.03125 44.71875 
Q 8.5 49.078125 8.5 55.328125 
Q 8.5 64.0625 14.71875 69.140625 
Q 20.953125 74.21875 31.78125 74.21875 
Q 42.671875 74.21875 48.875 69.140625 
Q 55.078125 64.0625 55.078125 55.328125 
Q 55.078125 49.078125 51.53125 44.71875 
Q 48 40.375 41.703125 38.8125 
Q 48.828125 37.15625 52.796875 32.3125 
Q 56.78125 27.484375 56.78125 20.515625 
Q 56.78125 9.90625 50.3125 4.234375 
Q 43.84375 -1.421875 31.78125 -1.421875 
Q 19.734375 -1.421875 13.25 4.234375 
Q 6.78125 9.90625 6.78125 20.515625 
Q 6.78125 27.484375 10.78125 32.3125 
Q 14.796875 37.15625 21.921875 38.8125 
M 18.3125 54.390625 
Q 18.3125 48.734375 21.84375 45.5625 
Q 25.390625 42.390625 31.78125 42.390625 
Q 38.140625 42.390625 41.71875 45.5625 
Q 45.3125 48.734375 45.3125 54.390625 
Q 45.3125 60.0625 41.71875 63.234375 
Q 38.140625 66.40625 31.78125 66.40625 
Q 25.390625 66.40625 21.84375 63.234375 
Q 18.3125 60.0625 18.3125 54.390625 
" id="BitstreamVeraSans-Roman-38"/>
      </defs>
      <g transform="translate(316.1825 401.918125)scale(0.12 -0.12)">
       <use xlink:href="#BitstreamVeraSans-Roman-38"/>
      </g>
     </g>
    </g>
    <g id="xtick_7">
     <g id="line2d_13">
      <g>
       <use style="stroke:#000000;stroke-width:0.5;" x="369.6" xlink:href="#m521c79b04a" y="388.8"/>
      </g>
     </g>
     <g id="line2d_14">
      <g>
       <use style="stroke:#000000;stroke-width:0.5;" x="369.6" xlink:href="#m368af149f0" y="43.2"/>
      </g>
     </g>
     <g id="text_7">
      <!-- 10 -->
      <defs>
       <path d="M 12.40625 8.296875 
L 28.515625 8.296875 
L 28.515625 63.921875 
L 10.984375 60.40625 
L 10.984375 69.390625 
L 28.421875 72.90625 
L 38.28125 72.90625 
L 38.28125 8.296875 
L 54.390625 8.296875 
L 54.390625 0 
L 12.40625 0 
z
" id="BitstreamVeraSans-Roman-31"/>
      </defs>
      <g transform="translate(361.965 401.918125)scale(0.12 -0.12)">
       <use xlink:href="#BitstreamVeraSans-Roman-31"/>
       <use x="63.623046875" xlink:href="#BitstreamVeraSans-Roman-30"/>
      </g>
     </g>
    </g>
    <g id="xtick_8">
     <g id="line2d_15">
      <g>
       <use style="stroke:#000000;stroke-width:0.5;" x="419.2" xlink:href="#m521c79b04a" y="388.8"/>
      </g>
     </g>
     <g id="line2d_16">
      <g>
       <use style="stroke:#000000;stroke-width:0.5;" x="419.2" xlink:href="#m368af149f0" y="43.2"/>
      </g>
     </g>
     <g id="text_8">
      <!-- 12 -->
      <g transform="translate(411.565 401.918125)scale(0.12 -0.12)">
       <use xlink:href="#BitstreamVeraSans-Roman-31"/>
       <use x="63.623046875" xlink:href="#BitstreamVeraSans-Roman-32"/>
      </g>
     </g>
    </g>
    <g id="xtick_9">
     <g id="line2d_17">
      <g>
       <use style="stroke:#000000;stroke-width:0.5;" x="468.8" xlink:href="#m521c79b04a" y="388.8"/>
      </g>
     </g>
     <g id="line2d_18">
      <g>
       <use style="stroke:#000000;stroke-width:0.5;" x="468.8" xlink:href="#m368af149f0" y="43.2"/>
      </g>
     </g>
     <g id="text_9">
      <!-- 14 -->
      <g transform="translate(461.165 401.918125)scale(0.12 -0.12)">
       <use xlink:href="#BitstreamVeraSans-Roman-31"/>
       <use x="63.623046875" xlink:href="#BitstreamVeraSans-Roman-34"/>
      </g>
     </g>
    </g>
    <g id="xtick_10">
     <g id="line2d_19">
      <g>
       <use style="stroke:#000000;stroke-width:0.5;" x="518.4" xlink:href="#m521c79b04a" y="388.8"/>
      </g>
     </g>
     <g id="line2d_20">
      <g>
       <use style="stroke:#000000;stroke-width:0.5;" x="518.4" xlink:href="#m368af149f0" y="43.2"/>
      </g>
     </g>
     <g id="text_10">
      <!-- 16 -->
      <g transform="translate(510.765 401.918125)scale(0.12 -0.12)">
       <use xlink:href="#BitstreamVeraSans-Roman-31"/>
       <use x="63.623046875" xlink:href="#BitstreamVeraSans-Roman-36"/>
      </g>
     </g>
    </g>
    <g id="text_11">
     <!-- rank -->
     <defs>
      <path d="M 54.890625 33.015625 
L 54.890625 0 
L 45.90625 0 
L 45.90625 32.71875 
Q 45.90625 40.484375 42.875 44.328125 
Q 39.84375 48.1875 33.796875 48.1875 
Q 26.515625 48.1875 22.3125 43.546875 
Q 18.109375 38.921875 18.109375 30.90625 
L 18.109375 0 
L 9.078125 0 
L 9.078125 54.6875 
L 18.109375 54.6875 
L 18.109375 46.1875 
Q 21.34375 51.125 25.703125 53.5625 
Q 30.078125 56 35.796875 56 
Q 45.21875 56 50.046875 50.171875 
Q 54.890625 44.34375 54.890625 33.015625 
" id="BitstreamVeraSans-Roman-6e"/>
      <path d="M 34.28125 27.484375 
Q 23.390625 27.484375 19.1875 25 
Q 14.984375 22.515625 14.984375 16.5 
Q 14.984375 11.71875 18.140625 8.90625 
Q 21.296875 6.109375 26.703125 6.109375 
Q 34.1875 6.109375 38.703125 11.40625 
Q 43.21875 16.703125 43.21875 25.484375 
L 43.21875 27.484375 
z
M 52.203125 31.203125 
L 52.203125 0 
L 43.21875 0 
L 43.21875 8.296875 
Q 40.140625 3.328125 35.546875 0.953125 
Q 30.953125 -1.421875 24.3125 -1.421875 
Q 15.921875 -1.421875 10.953125 3.296875 
Q 6 8.015625 6 15.921875 
Q 6 25.140625 12.171875 29.828125 
Q 18.359375 34.515625 30.609375 34.515625 
L 43.21875 34.515625 
L 43.21875 35.40625 
Q 43.21875 41.609375 39.140625 45 
Q 35.0625 48.390625 27.6875 48.390625 
Q 23 48.390625 18.546875 47.265625 
Q 14.109375 46.140625 10.015625 43.890625 
L 10.015625 52.203125 
Q 14.9375 54.109375 19.578125 55.046875 
Q 24.21875 56 28.609375 56 
Q 40.484375 56 46.34375 49.84375 
Q 52.203125 43.703125 52.203125 31.203125 
" id="BitstreamVeraSans-Roman-61"/>
      <path d="M 41.109375 46.296875 
Q 39.59375 47.171875 37.8125 47.578125 
Q 36.03125 48 33.890625 48 
Q 26.265625 48 22.1875 43.046875 
Q 18.109375 38.09375 18.109375 28.8125 
L 18.109375 0 
L 9.078125 0 
L 9.078125 54.6875 
L 18.109375 54.6875 
L 18.109375 46.1875 
Q 20.953125 51.171875 25.484375 53.578125 
Q 30.03125 56 36.53125 56 
Q 37.453125 56 38.578125 55.875 
Q 39.703125 55.765625 41.0625 55.515625 
z
" id="BitstreamVeraSans-Roman-72"/>
      <path d="M 9.078125 75.984375 
L 18.109375 75.984375 
L 18.109375 31.109375 
L 44.921875 54.6875 
L 56.390625 54.6875 
L 27.390625 29.109375 
L 57.625 0 
L 45.90625 0 
L 18.109375 26.703125 
L 18.109375 0 
L 9.078125 0 
z
" id="BitstreamVeraSans-Roman-6b"/>
     </defs>
     <g transform="translate(281.7796875 418.531875)scale(0.12 -0.12)">
      <use xlink:href="#BitstreamVeraSans-Roman-72"/>
      <use x="41.11328125" xlink:href="#BitstreamVeraSans-Roman-61"/>
      <use x="102.392578125" xlink:href="#BitstreamVeraSans-Roman-6e"/>
      <use x="165.771484375" xlink:href="#BitstreamVeraSans-Roman-6b"/>
     </g>
    </g>
   </g>
   <g id="matplotlib.axis_2">
    <g id="ytick_1">
     <g id="line2d_21">
      <defs>
       <path d="M 0 0 
L 4 0 
" id="md22d11cc6a" style="stroke:#000000;stroke-width:0.5;"/>
      </defs>
      <g>
       <use style="stroke:#000000;stroke-width:0.5;" x="72.0" xlink:href="#md22d11cc6a" y="354.24"/>
      </g>
     </g>
     <g id="line2d_22">
      <defs>
       <path d="M 0 0 
L -4 0 
" id="mddaca32103" style="stroke:#000000;stroke-width:0.5;"/>
      </defs>
      <g>
       <use style="stroke:#000000;stroke-width:0.5;" x="518.4" xlink:href="#mddaca32103" y="354.24"/>
      </g>
     </g>
     <g id="text_12">
      <!-- 0 -->
      <g transform="translate(60.365 357.55125)scale(0.12 -0.12)">
       <use xlink:href="#BitstreamVeraSans-Roman-30"/>
      </g>
     </g>
    </g>
    <g id="ytick_2">
     <g id="line2d_23">
      <g>
       <use style="stroke:#000000;stroke-width:0.5;" x="72.0" xlink:href="#md22d11cc6a" y="285.12"/>
      </g>
     </g>
     <g id="line2d_24">
      <g>
       <use style="stroke:#000000;stroke-width:0.5;" x="518.4" xlink:href="#mddaca32103" y="285.12"/>
      </g>
     </g>
     <g id="text_13">
      <!-- 200 -->
      <g transform="translate(45.095 288.43125)scale(0.12 -0.12)">
       <use xlink:href="#BitstreamVeraSans-Roman-32"/>
       <use x="63.623046875" xlink:href="#BitstreamVeraSans-Roman-30"/>
       <use x="127.24609375" xlink:href="#BitstreamVeraSans-Roman-30"/>
      </g>
     </g>
    </g>
    <g id="ytick_3">
     <g id="line2d_25">
      <g>
       <use style="stroke:#000000;stroke-width:0.5;" x="72.0" xlink:href="#md22d11cc6a" y="216.0"/>
      </g>
     </g>
     <g id="line2d_26">
      <g>
       <use style="stroke:#000000;stroke-width:0.5;" x="518.4" xlink:href="#mddaca32103" y="216.0"/>
      </g>
     </g>
     <g id="text_14">
      <!-- 400 -->
      <g transform="translate(45.095 219.31125)scale(0.12 -0.12)">
       <use xlink:href="#BitstreamVeraSans-Roman-34"/>
       <use x="63.623046875" xlink:href="#BitstreamVeraSans-Roman-30"/>
       <use x="127.24609375" xlink:href="#BitstreamVeraSans-Roman-30"/>
      </g>
     </g>
    </g>
    <g id="ytick_4">
     <g id="line2d_27">
      <g>
       <use style="stroke:#000000;stroke-width:0.5;" x="72.0" xlink:href="#md22d11cc6a" y="146.88"/>
      </g>
     </g>
     <g id="line2d_28">
      <g>
       <use style="stroke:#000000;stroke-width:0.5;" x="518.4" xlink:href="#mddaca32103" y="146.88"/>
      </g>
     </g>
     <g id="text_15">
      <!-- 600 -->
      <g transform="translate(45.095 150.19125)scale(0.12 -0.12)">
       <use xlink:href="#BitstreamVeraSans-Roman-36"/>
       <use x="63.623046875" xlink:href="#BitstreamVeraSans-Roman-30"/>
       <use x="127.24609375" xlink:href="#BitstreamVeraSans-Roman-30"/>
      </g>
     </g>
    </g>
    <g id="ytick_5">
     <g id="line2d_29">
      <g>
       <use style="stroke:#000000;stroke-width:0.5;" x="72.0" xlink:href="#md22d11cc6a" y="77.76"/>
      </g>
     </g>
     <g id="line2d_30">
      <g>
       <use style="stroke:#000000;stroke-width:0.5;" x="518.4" xlink:href="#mddaca32103" y="77.76"/>
      </g>
     </g>
     <g id="text_16">
      <!-- 800 -->
      <g transform="translate(45.095 81.07125)scale(0.12 -0.12)">
       <use xlink:href="#BitstreamVeraSans-Roman-38"/>
       <use x="63.623046875" xlink:href="#BitstreamVeraSans-Roman-30"/>
       <use x="127.24609375" xlink:href="#BitstreamVeraSans-Roman-30"/>
      </g>
     </g>
    </g>
    <g id="text_17">
     <!-- move error -->
     <defs>
      <path d="M 2.984375 54.6875 
L 12.5 54.6875 
L 29.59375 8.796875 
L 46.6875 54.6875 
L 56.203125 54.6875 
L 35.6875 0 
L 23.484375 0 
z
" id="BitstreamVeraSans-Roman-76"/>
      <path d="M 52 44.1875 
Q 55.375 50.25 60.0625 53.125 
Q 64.75 56 71.09375 56 
Q 79.640625 56 84.28125 50.015625 
Q 88.921875 44.046875 88.921875 33.015625 
L 88.921875 0 
L 79.890625 0 
L 79.890625 32.71875 
Q 79.890625 40.578125 77.09375 44.375 
Q 74.3125 48.1875 68.609375 48.1875 
Q 61.625 48.1875 57.5625 43.546875 
Q 53.515625 38.921875 53.515625 30.90625 
L 53.515625 0 
L 44.484375 0 
L 44.484375 32.71875 
Q 44.484375 40.625 41.703125 44.40625 
Q 38.921875 48.1875 33.109375 48.1875 
Q 26.21875 48.1875 22.15625 43.53125 
Q 18.109375 38.875 18.109375 30.90625 
L 18.109375 0 
L 9.078125 0 
L 9.078125 54.6875 
L 18.109375 54.6875 
L 18.109375 46.1875 
Q 21.1875 51.21875 25.484375 53.609375 
Q 29.78125 56 35.6875 56 
Q 41.65625 56 45.828125 52.96875 
Q 50 49.953125 52 44.1875 
" id="BitstreamVeraSans-Roman-6d"/>
      <path d="M 56.203125 29.59375 
L 56.203125 25.203125 
L 14.890625 25.203125 
Q 15.484375 15.921875 20.484375 11.0625 
Q 25.484375 6.203125 34.421875 6.203125 
Q 39.59375 6.203125 44.453125 7.46875 
Q 49.3125 8.734375 54.109375 11.28125 
L 54.109375 2.78125 
Q 49.265625 0.734375 44.1875 -0.34375 
Q 39.109375 -1.421875 33.890625 -1.421875 
Q 20.796875 -1.421875 13.15625 6.1875 
Q 5.515625 13.8125 5.515625 26.8125 
Q 5.515625 40.234375 12.765625 48.109375 
Q 20.015625 56 32.328125 56 
Q 43.359375 56 49.78125 48.890625 
Q 56.203125 41.796875 56.203125 29.59375 
M 47.21875 32.234375 
Q 47.125 39.59375 43.09375 43.984375 
Q 39.0625 48.390625 32.421875 48.390625 
Q 24.90625 48.390625 20.390625 44.140625 
Q 15.875 39.890625 15.1875 32.171875 
z
" id="BitstreamVeraSans-Roman-65"/>
      <path d="M 30.609375 48.390625 
Q 23.390625 48.390625 19.1875 42.75 
Q 14.984375 37.109375 14.984375 27.296875 
Q 14.984375 17.484375 19.15625 11.84375 
Q 23.34375 6.203125 30.609375 6.203125 
Q 37.796875 6.203125 41.984375 11.859375 
Q 46.1875 17.53125 46.1875 27.296875 
Q 46.1875 37.015625 41.984375 42.703125 
Q 37.796875 48.390625 30.609375 48.390625 
M 30.609375 56 
Q 42.328125 56 49.015625 48.375 
Q 55.71875 40.765625 55.71875 27.296875 
Q 55.71875 13.875 49.015625 6.21875 
Q 42.328125 -1.421875 30.609375 -1.421875 
Q 18.84375 -1.421875 12.171875 6.21875 
Q 5.515625 13.875 5.515625 27.296875 
Q 5.515625 40.765625 12.171875 48.375 
Q 18.84375 56 30.609375 56 
" id="BitstreamVeraSans-Roman-6f"/>
      <path id="BitstreamVeraSans-Roman-20"/>
     </defs>
     <g transform="translate(37.599375 249.425625)rotate(-90.0)scale(0.12 -0.12)">
      <use xlink:href="#BitstreamVeraSans-Roman-6d"/>
      <use x="97.412109375" xlink:href="#BitstreamVeraSans-Roman-6f"/>
      <use x="158.59375" xlink:href="#BitstreamVeraSans-Roman-76"/>
      <use x="217.7734375" xlink:href="#BitstreamVeraSans-Roman-65"/>
      <use x="279.296875" xlink:href="#BitstreamVeraSans-Roman-20"/>
      <use x="311.083984375" xlink:href="#BitstreamVeraSans-Roman-65"/>
      <use x="372.607421875" xlink:href="#BitstreamVeraSans-Roman-72"/>
      <use x="413.705078125" xlink:href="#BitstreamVeraSans-Roman-72"/>
      <use x="454.787109375" xlink:href="#BitstreamVeraSans-Roman-6f"/>
      <use x="515.96875" xlink:href="#BitstreamVeraSans-Roman-72"/>
     </g>
    </g>
   </g>
  </g>
 </g>
 <defs>
  <clipPath id="pefbfb44868">
   <rect height="345.6" width="446.4" x="72.0" y="43.2"/>
  </clipPath>
 </defs>
</svg>
