<?xml version="1.0" encoding="utf-8" standalone="no"?>
<!DOCTYPE svg PUBLIC "-//W3C//DTD SVG 1.1//EN"
  "http://www.w3.org/Graphics/SVG/1.1/DTD/svg11.dtd">
<!-- Created with matplotlib (http://matplotlib.org/) -->
<svg height="432pt" version="1.1" viewBox="0 0 576 432" width="576pt" xmlns="http://www.w3.org/2000/svg" xmlns:xlink="http://www.w3.org/1999/xlink">
 <defs>
  <style type="text/css">
*{stroke-linecap:butt;stroke-linejoin:round;stroke-miterlimit:100000;}
  </style>
 </defs>
 <g id="figure_1">
  <g id="patch_1">
   <path d="M 0 432 
L 576 432 
L 576 0 
L 0 0 
z
" style="fill:#ffffff;"/>
  </g>
  <g id="axes_1">
   <g id="patch_2">
    <path d="M 72 388.8 
L 518.4 388.8 
L 518.4 43.2 
L 72 43.2 
z
" style="fill:#ffffff;"/>
   </g>
   <g id="PathCollection_1">
    <defs>
     <path d="M 0 2.236068 
C 0.593012 2.236068 1.161816 2.000462 1.581139 1.581139 
C 2.000462 1.161816 2.236068 0.593012 2.236068 0 
C 2.236068 -0.593012 2.000462 -1.161816 1.581139 -1.581139 
C 1.161816 -2.000462 0.593012 -2.236068 0 -2.236068 
C -0.593012 -2.236068 -1.161816 -2.000462 -1.581139 -1.581139 
C -2.000462 -1.161816 -2.236068 -0.593012 -2.236068 0 
C -2.236068 0.593012 -2.000462 1.161816 -1.581139 1.581139 
C -1.161816 2.000462 -0.593012 2.236068 0 2.236068 
z
" id="m2608d7e82f" style="stroke:#000000;"/>
    </defs>
    <g clip-path="url(#p5f0d1a0c83)">
     <use style="fill:#0000ff;stroke:#000000;" x="247.058823529" xlink:href="#m2608d7e82f" y="273.6"/>
     <use style="fill:#0000ff;stroke:#000000;" x="221.821176471" xlink:href="#m2608d7e82f" y="342.72"/>
     <use style="fill:#0000ff;stroke:#000000;" x="221.0976" xlink:href="#m2608d7e82f" y="342.72"/>
     <use style="fill:#0000ff;stroke:#000000;" x="224.806153846" xlink:href="#m2608d7e82f" y="319.68"/>
     <use style="fill:#0000ff;stroke:#000000;" x="222.598681319" xlink:href="#m2608d7e82f" y="327.36"/>
     <use style="fill:#0000ff;stroke:#000000;" x="221.606746988" xlink:href="#m2608d7e82f" y="342.72"/>
     <use style="fill:#0000ff;stroke:#000000;" x="220.8" xlink:href="#m2608d7e82f" y="350.4"/>
     <use style="fill:#0000ff;stroke:#000000;" x="221.316666667" xlink:href="#m2608d7e82f" y="342.72"/>
     <use style="fill:#0000ff;stroke:#000000;" x="227.145882353" xlink:href="#m2608d7e82f" y="265.92"/>
     <use style="fill:#0000ff;stroke:#000000;" x="226.125473684" xlink:href="#m2608d7e82f" y="273.6"/>
     <use style="fill:#0000ff;stroke:#000000;" x="220.8" xlink:href="#m2608d7e82f" y="350.4"/>
     <use style="fill:#0000ff;stroke:#000000;" x="220.8" xlink:href="#m2608d7e82f" y="350.4"/>
     <use style="fill:#0000ff;stroke:#000000;" x="222.568951049" xlink:href="#m2608d7e82f" y="342.72"/>
     <use style="fill:#0000ff;stroke:#000000;" x="222.590075188" xlink:href="#m2608d7e82f" y="342.72"/>
     <use style="fill:#0000ff;stroke:#000000;" x="222.386470588" xlink:href="#m2608d7e82f" y="335.04"/>
     <use style="fill:#0000ff;stroke:#000000;" x="222.308811189" xlink:href="#m2608d7e82f" y="335.04"/>
     <use style="fill:#0000ff;stroke:#000000;" x="220.8" xlink:href="#m2608d7e82f" y="350.4"/>
     <use style="fill:#0000ff;stroke:#000000;" x="220.8" xlink:href="#m2608d7e82f" y="350.4"/>
     <use style="fill:#0000ff;stroke:#000000;" x="220.911879699" xlink:href="#m2608d7e82f" y="342.72"/>
     <use style="fill:#0000ff;stroke:#000000;" x="220.8" xlink:href="#m2608d7e82f" y="350.4"/>
     <use style="fill:#0000ff;stroke:#000000;" x="220.8" xlink:href="#m2608d7e82f" y="350.4"/>
     <use style="fill:#0000ff;stroke:#000000;" x="220.8" xlink:href="#m2608d7e82f" y="350.4"/>
     <use style="fill:#0000ff;stroke:#000000;" x="220.86953271" xlink:href="#m2608d7e82f" y="342.72"/>
     <use style="fill:#0000ff;stroke:#000000;" x="461.36" xlink:href="#m2608d7e82f" y="73.92"/>
     <use style="fill:#0000ff;stroke:#000000;" x="228.24" xlink:href="#m2608d7e82f" y="335.04"/>
     <use style="fill:#0000ff;stroke:#000000;" x="220.8" xlink:href="#m2608d7e82f" y="350.4"/>
     <use style="fill:#0000ff;stroke:#000000;" x="220.8" xlink:href="#m2608d7e82f" y="350.4"/>
     <use style="fill:#0000ff;stroke:#000000;" x="220.8" xlink:href="#m2608d7e82f" y="350.4"/>
     <use style="fill:#0000ff;stroke:#000000;" x="220.8" xlink:href="#m2608d7e82f" y="350.4"/>
     <use style="fill:#0000ff;stroke:#000000;" x="220.8" xlink:href="#m2608d7e82f" y="350.4"/>
     <use style="fill:#0000ff;stroke:#000000;" x="258.0" xlink:href="#m2608d7e82f" y="304.32"/>
     <use style="fill:#0000ff;stroke:#000000;" x="220.8" xlink:href="#m2608d7e82f" y="350.4"/>
     <use style="fill:#0000ff;stroke:#000000;" x="220.8" xlink:href="#m2608d7e82f" y="342.72"/>
     <use style="fill:#0000ff;stroke:#000000;" x="220.8" xlink:href="#m2608d7e82f" y="350.4"/>
     <use style="fill:#0000ff;stroke:#000000;" x="208.71" xlink:href="#m2608d7e82f" y="312.0"/>
     <use style="fill:#0000ff;stroke:#000000;" x="162.933333333" xlink:href="#m2608d7e82f" y="250.56"/>
     <use style="fill:#0000ff;stroke:#000000;" x="220.8" xlink:href="#m2608d7e82f" y="350.4"/>
     <use style="fill:#0000ff;stroke:#000000;" x="218.646315789" xlink:href="#m2608d7e82f" y="327.36"/>
     <use style="fill:#0000ff;stroke:#000000;" x="220.8" xlink:href="#m2608d7e82f" y="350.4"/>
     <use style="fill:#0000ff;stroke:#000000;" x="340.666666667" xlink:href="#m2608d7e82f" y="258.24"/>
     <use style="fill:#0000ff;stroke:#000000;" x="230.88" xlink:href="#m2608d7e82f" y="342.72"/>
     <use style="fill:#0000ff;stroke:#000000;" x="227.989915966" xlink:href="#m2608d7e82f" y="250.56"/>
     <use style="fill:#0000ff;stroke:#000000;" x="222.348426396" xlink:href="#m2608d7e82f" y="342.72"/>
     <use style="fill:#0000ff;stroke:#000000;" x="211.349189189" xlink:href="#m2608d7e82f" y="342.72"/>
     <use style="fill:#0000ff;stroke:#000000;" x="220.8" xlink:href="#m2608d7e82f" y="350.4"/>
     <use style="fill:#0000ff;stroke:#000000;" x="220.8" xlink:href="#m2608d7e82f" y="350.4"/>
     <use style="fill:#0000ff;stroke:#000000;" x="220.8" xlink:href="#m2608d7e82f" y="350.4"/>
     <use style="fill:#0000ff;stroke:#000000;" x="220.8" xlink:href="#m2608d7e82f" y="350.4"/>
     <use style="fill:#0000ff;stroke:#000000;" x="220.8" xlink:href="#m2608d7e82f" y="350.4"/>
     <use style="fill:#0000ff;stroke:#000000;" x="220.8" xlink:href="#m2608d7e82f" y="350.4"/>
     <use style="fill:#0000ff;stroke:#000000;" x="287.76" xlink:href="#m2608d7e82f" y="281.28"/>
     <use style="fill:#0000ff;stroke:#000000;" x="206.85" xlink:href="#m2608d7e82f" y="342.72"/>
     <use style="fill:#0000ff;stroke:#000000;" x="332.4" xlink:href="#m2608d7e82f" y="242.88"/>
     <use style="fill:#0000ff;stroke:#000000;" x="224.272" xlink:href="#m2608d7e82f" y="319.68"/>
     <use style="fill:#0000ff;stroke:#000000;" x="220.8" xlink:href="#m2608d7e82f" y="350.4"/>
     <use style="fill:#0000ff;stroke:#000000;" x="220.604210526" xlink:href="#m2608d7e82f" y="335.04"/>
     <use style="fill:#0000ff;stroke:#000000;" x="220.8" xlink:href="#m2608d7e82f" y="350.4"/>
     <use style="fill:#0000ff;stroke:#000000;" x="220.496326531" xlink:href="#m2608d7e82f" y="335.04"/>
     <use style="fill:#0000ff;stroke:#000000;" x="219.233684211" xlink:href="#m2608d7e82f" y="327.36"/>
     <use style="fill:#0000ff;stroke:#000000;" x="220.8" xlink:href="#m2608d7e82f" y="350.4"/>
     <use style="fill:#0000ff;stroke:#000000;" x="220.6512" xlink:href="#m2608d7e82f" y="342.72"/>
     <use style="fill:#0000ff;stroke:#000000;" x="219.427142857" xlink:href="#m2608d7e82f" y="319.68"/>
     <use style="fill:#0000ff;stroke:#000000;" x="219.474482759" xlink:href="#m2608d7e82f" y="312.0"/>
     <use style="fill:#0000ff;stroke:#000000;" x="214.960465116" xlink:href="#m2608d7e82f" y="181.44"/>
     <use style="fill:#0000ff;stroke:#000000;" x="215.548235294" xlink:href="#m2608d7e82f" y="335.04"/>
     <use style="fill:#0000ff;stroke:#000000;" x="216.301395349" xlink:href="#m2608d7e82f" y="342.72"/>
     <use style="fill:#0000ff;stroke:#000000;" x="220.8" xlink:href="#m2608d7e82f" y="350.4"/>
     <use style="fill:#0000ff;stroke:#000000;" x="220.8" xlink:href="#m2608d7e82f" y="350.4"/>
     <use style="fill:#0000ff;stroke:#000000;" x="219.136637782" xlink:href="#m2608d7e82f" y="342.72"/>
     <use style="fill:#0000ff;stroke:#000000;" x="220.8" xlink:href="#m2608d7e82f" y="350.4"/>
     <use style="fill:#0000ff;stroke:#000000;" x="220.239899624" xlink:href="#m2608d7e82f" y="342.72"/>
     <use style="fill:#0000ff;stroke:#000000;" x="220.71072" xlink:href="#m2608d7e82f" y="342.72"/>
     <use style="fill:#0000ff;stroke:#000000;" x="220.5024" xlink:href="#m2608d7e82f" y="342.72"/>
     <use style="fill:#0000ff;stroke:#000000;" x="220.8" xlink:href="#m2608d7e82f" y="342.72"/>
     <use style="fill:#0000ff;stroke:#000000;" x="220.8" xlink:href="#m2608d7e82f" y="350.4"/>
     <use style="fill:#0000ff;stroke:#000000;" x="220.8" xlink:href="#m2608d7e82f" y="342.72"/>
     <use style="fill:#0000ff;stroke:#000000;" x="220.8" xlink:href="#m2608d7e82f" y="342.72"/>
     <use style="fill:#0000ff;stroke:#000000;" x="220.8" xlink:href="#m2608d7e82f" y="250.56"/>
     <use style="fill:#0000ff;stroke:#000000;" x="220.8" xlink:href="#m2608d7e82f" y="350.4"/>
     <use style="fill:#0000ff;stroke:#000000;" x="220.8" xlink:href="#m2608d7e82f" y="350.4"/>
     <use style="fill:#0000ff;stroke:#000000;" x="220.8" xlink:href="#m2608d7e82f" y="296.64"/>
     <use style="fill:#0000ff;stroke:#000000;" x="220.8" xlink:href="#m2608d7e82f" y="342.72"/>
     <use style="fill:#0000ff;stroke:#000000;" x="220.8" xlink:href="#m2608d7e82f" y="312.0"/>
     <use style="fill:#0000ff;stroke:#000000;" x="220.8" xlink:href="#m2608d7e82f" y="350.4"/>
     <use style="fill:#0000ff;stroke:#000000;" x="233.288571429" xlink:href="#m2608d7e82f" y="281.28"/>
     <use style="fill:#0000ff;stroke:#000000;" x="220.8" xlink:href="#m2608d7e82f" y="350.4"/>
     <use style="fill:#0000ff;stroke:#000000;" x="220.8" xlink:href="#m2608d7e82f" y="350.4"/>
     <use style="fill:#0000ff;stroke:#000000;" x="220.8" xlink:href="#m2608d7e82f" y="350.4"/>
     <use style="fill:#0000ff;stroke:#000000;" x="225.594666667" xlink:href="#m2608d7e82f" y="335.04"/>
     <use style="fill:#0000ff;stroke:#000000;" x="220.8" xlink:href="#m2608d7e82f" y="350.4"/>
     <use style="fill:#0000ff;stroke:#000000;" x="298.92" xlink:href="#m2608d7e82f" y="342.72"/>
     <use style="fill:#0000ff;stroke:#000000;" x="220.8" xlink:href="#m2608d7e82f" y="350.4"/>
     <use style="fill:#0000ff;stroke:#000000;" x="218.450526316" xlink:href="#m2608d7e82f" y="342.72"/>
     <use style="fill:#0000ff;stroke:#000000;" x="204.178723404" xlink:href="#m2608d7e82f" y="327.36"/>
     <use style="fill:#0000ff;stroke:#000000;" x="220.8" xlink:href="#m2608d7e82f" y="350.4"/>
     <use style="fill:#0000ff;stroke:#000000;" x="223.831111111" xlink:href="#m2608d7e82f" y="342.72"/>
     <use style="fill:#0000ff;stroke:#000000;" x="226.07" xlink:href="#m2608d7e82f" y="319.68"/>
     <use style="fill:#0000ff;stroke:#000000;" x="226.38" xlink:href="#m2608d7e82f" y="335.04"/>
     <use style="fill:#0000ff;stroke:#000000;" x="221.42" xlink:href="#m2608d7e82f" y="342.72"/>
     <use style="fill:#0000ff;stroke:#000000;" x="284.04" xlink:href="#m2608d7e82f" y="265.92"/>
     <use style="fill:#0000ff;stroke:#000000;" x="194.016" xlink:href="#m2608d7e82f" y="335.04"/>
     <use style="fill:#0000ff;stroke:#000000;" x="217.795384615" xlink:href="#m2608d7e82f" y="335.04"/>
     <use style="fill:#0000ff;stroke:#000000;" x="220.349090909" xlink:href="#m2608d7e82f" y="342.72"/>
     <use style="fill:#0000ff;stroke:#000000;" x="220.8" xlink:href="#m2608d7e82f" y="350.4"/>
     <use style="fill:#0000ff;stroke:#000000;" x="220.323076923" xlink:href="#m2608d7e82f" y="342.72"/>
     <use style="fill:#0000ff;stroke:#000000;" x="220.8" xlink:href="#m2608d7e82f" y="350.4"/>
     <use style="fill:#0000ff;stroke:#000000;" x="219.847962085" xlink:href="#m2608d7e82f" y="327.36"/>
     <use style="fill:#0000ff;stroke:#000000;" x="220.571076923" xlink:href="#m2608d7e82f" y="335.04"/>
     <use style="fill:#0000ff;stroke:#000000;" x="220.8" xlink:href="#m2608d7e82f" y="350.4"/>
     <use style="fill:#0000ff;stroke:#000000;" x="219.759661017" xlink:href="#m2608d7e82f" y="273.6"/>
     <use style="fill:#0000ff;stroke:#000000;" x="220.8" xlink:href="#m2608d7e82f" y="350.4"/>
     <use style="fill:#0000ff;stroke:#000000;" x="220.749215017" xlink:href="#m2608d7e82f" y="342.72"/>
     <use style="fill:#0000ff;stroke:#000000;" x="220.5768" xlink:href="#m2608d7e82f" y="335.04"/>
     <use style="fill:#0000ff;stroke:#000000;" x="219.765966102" xlink:href="#m2608d7e82f" y="273.6"/>
     <use style="fill:#0000ff;stroke:#000000;" x="219.498542274" xlink:href="#m2608d7e82f" y="327.36"/>
     <use style="fill:#0000ff;stroke:#000000;" x="218.486501767" xlink:href="#m2608d7e82f" y="158.4"/>
     <use style="fill:#0000ff;stroke:#000000;" x="220.8" xlink:href="#m2608d7e82f" y="350.4"/>
     <use style="fill:#0000ff;stroke:#000000;" x="220.8" xlink:href="#m2608d7e82f" y="350.4"/>
     <use style="fill:#0000ff;stroke:#000000;" x="220.714971429" xlink:href="#m2608d7e82f" y="342.72"/>
     <use style="fill:#0000ff;stroke:#000000;" x="219.81203252" xlink:href="#m2608d7e82f" y="304.32"/>
     <use style="fill:#0000ff;stroke:#000000;" x="220.330810811" xlink:href="#m2608d7e82f" y="335.04"/>
     <use style="fill:#0000ff;stroke:#000000;" x="220.272" xlink:href="#m2608d7e82f" y="335.04"/>
     <use style="fill:#0000ff;stroke:#000000;" x="218.4" xlink:href="#m2608d7e82f" y="212.16"/>
     <use style="fill:#0000ff;stroke:#000000;" x="220.648163265" xlink:href="#m2608d7e82f" y="342.72"/>
     <use style="fill:#0000ff;stroke:#000000;" x="220.178006431" xlink:href="#m2608d7e82f" y="319.68"/>
     <use style="fill:#0000ff;stroke:#000000;" x="220.028126801" xlink:href="#m2608d7e82f" y="327.36"/>
     <use style="fill:#0000ff;stroke:#000000;" x="220.8" xlink:href="#m2608d7e82f" y="342.72"/>
     <use style="fill:#0000ff;stroke:#000000;" x="220.736949153" xlink:href="#m2608d7e82f" y="342.72"/>
     <use style="fill:#0000ff;stroke:#000000;" x="218.408571429" xlink:href="#m2608d7e82f" y="212.16"/>
     <use style="fill:#0000ff;stroke:#000000;" x="220.8" xlink:href="#m2608d7e82f" y="350.4"/>
     <use style="fill:#0000ff;stroke:#000000;" x="220.8" xlink:href="#m2608d7e82f" y="350.4"/>
     <use style="fill:#0000ff;stroke:#000000;" x="231.96" xlink:href="#m2608d7e82f" y="342.72"/>
     <use style="fill:#0000ff;stroke:#000000;" x="222.740869565" xlink:href="#m2608d7e82f" y="342.72"/>
     <use style="fill:#0000ff;stroke:#000000;" x="220.8" xlink:href="#m2608d7e82f" y="350.4"/>
     <use style="fill:#0000ff;stroke:#000000;" x="230.72" xlink:href="#m2608d7e82f" y="342.72"/>
     <use style="fill:#0000ff;stroke:#000000;" x="220.8" xlink:href="#m2608d7e82f" y="335.04"/>
     <use style="fill:#0000ff;stroke:#000000;" x="213.932307692" xlink:href="#m2608d7e82f" y="342.72"/>
     <use style="fill:#0000ff;stroke:#000000;" x="209.301818182" xlink:href="#m2608d7e82f" y="335.04"/>
     <use style="fill:#0000ff;stroke:#000000;" x="186.7" xlink:href="#m2608d7e82f" y="327.36"/>
     <use style="fill:#0000ff;stroke:#000000;" x="215.8896" xlink:href="#m2608d7e82f" y="342.72"/>
     <use style="fill:#0000ff;stroke:#000000;" x="220.8" xlink:href="#m2608d7e82f" y="350.4"/>
     <use style="fill:#0000ff;stroke:#000000;" x="220.002857143" xlink:href="#m2608d7e82f" y="335.04"/>
     <use style="fill:#0000ff;stroke:#000000;" x="218.502352941" xlink:href="#m2608d7e82f" y="312.0"/>
     <use style="fill:#0000ff;stroke:#000000;" x="220.372413793" xlink:href="#m2608d7e82f" y="342.72"/>
     <use style="fill:#0000ff;stroke:#000000;" x="220.8" xlink:href="#m2608d7e82f" y="350.4"/>
     <use style="fill:#0000ff;stroke:#000000;" x="220.8" xlink:href="#m2608d7e82f" y="350.4"/>
     <use style="fill:#0000ff;stroke:#000000;" x="220.8" xlink:href="#m2608d7e82f" y="350.4"/>
     <use style="fill:#0000ff;stroke:#000000;" x="220.8" xlink:href="#m2608d7e82f" y="350.4"/>
     <use style="fill:#0000ff;stroke:#000000;" x="219.583396226" xlink:href="#m2608d7e82f" y="304.32"/>
     <use style="fill:#0000ff;stroke:#000000;" x="211.935319149" xlink:href="#m2608d7e82f" y="181.44"/>
     <use style="fill:#0000ff;stroke:#000000;" x="245.324444444" xlink:href="#m2608d7e82f" y="335.04"/>
     <use style="fill:#0000ff;stroke:#000000;" x="220.8" xlink:href="#m2608d7e82f" y="350.4"/>
     <use style="fill:#0000ff;stroke:#000000;" x="220.8" xlink:href="#m2608d7e82f" y="350.4"/>
     <use style="fill:#0000ff;stroke:#000000;" x="220.288253968" xlink:href="#m2608d7e82f" y="342.72"/>
     <use style="fill:#0000ff;stroke:#000000;" x="219.343492063" xlink:href="#m2608d7e82f" y="342.72"/>
     <use style="fill:#0000ff;stroke:#000000;" x="220.8" xlink:href="#m2608d7e82f" y="350.4"/>
     <use style="fill:#0000ff;stroke:#000000;" x="220.8" xlink:href="#m2608d7e82f" y="350.4"/>
     <use style="fill:#0000ff;stroke:#000000;" x="220.8" xlink:href="#m2608d7e82f" y="350.4"/>
     <use style="fill:#0000ff;stroke:#000000;" x="237.54" xlink:href="#m2608d7e82f" y="281.28"/>
     <use style="fill:#0000ff;stroke:#000000;" x="228.24" xlink:href="#m2608d7e82f" y="335.04"/>
     <use style="fill:#0000ff;stroke:#000000;" x="220.8" xlink:href="#m2608d7e82f" y="350.4"/>
     <use style="fill:#0000ff;stroke:#000000;" x="220.8" xlink:href="#m2608d7e82f" y="350.4"/>
     <use style="fill:#0000ff;stroke:#000000;" x="220.8" xlink:href="#m2608d7e82f" y="350.4"/>
     <use style="fill:#0000ff;stroke:#000000;" x="153.84" xlink:href="#m2608d7e82f" y="288.96"/>
     <use style="fill:#0000ff;stroke:#000000;" x="205.92" xlink:href="#m2608d7e82f" y="335.04"/>
     <use style="fill:#0000ff;stroke:#000000;" x="206.664" xlink:href="#m2608d7e82f" y="342.72"/>
     <use style="fill:#0000ff;stroke:#000000;" x="237.54" xlink:href="#m2608d7e82f" y="335.04"/>
     <use style="fill:#0000ff;stroke:#000000;" x="220.8" xlink:href="#m2608d7e82f" y="350.4"/>
     <use style="fill:#0000ff;stroke:#000000;" x="219.193636364" xlink:href="#m2608d7e82f" y="342.72"/>
     <use style="fill:#0000ff;stroke:#000000;" x="214.0" xlink:href="#m2608d7e82f" y="227.52"/>
     <use style="fill:#0000ff;stroke:#000000;" x="220.8" xlink:href="#m2608d7e82f" y="350.4"/>
     <use style="fill:#0000ff;stroke:#000000;" x="220.8" xlink:href="#m2608d7e82f" y="350.4"/>
     <use style="fill:#0000ff;stroke:#000000;" x="219.025321101" xlink:href="#m2608d7e82f" y="327.36"/>
     <use style="fill:#0000ff;stroke:#000000;" x="220.8" xlink:href="#m2608d7e82f" y="350.4"/>
     <use style="fill:#0000ff;stroke:#000000;" x="220.8" xlink:href="#m2608d7e82f" y="350.4"/>
     <use style="fill:#0000ff;stroke:#000000;" x="220.8" xlink:href="#m2608d7e82f" y="350.4"/>
     <use style="fill:#0000ff;stroke:#000000;" x="220.242994652" xlink:href="#m2608d7e82f" y="342.72"/>
     <use style="fill:#0000ff;stroke:#000000;" x="220.8" xlink:href="#m2608d7e82f" y="350.4"/>
     <use style="fill:#0000ff;stroke:#000000;" x="220.8" xlink:href="#m2608d7e82f" y="350.4"/>
     <use style="fill:#0000ff;stroke:#000000;" x="219.78816" xlink:href="#m2608d7e82f" y="335.04"/>
     <use style="fill:#0000ff;stroke:#000000;" x="220.268571429" xlink:href="#m2608d7e82f" y="296.64"/>
     <use style="fill:#0000ff;stroke:#000000;" x="219.69888" xlink:href="#m2608d7e82f" y="335.04"/>
     <use style="fill:#0000ff;stroke:#000000;" x="220.8" xlink:href="#m2608d7e82f" y="350.4"/>
     <use style="fill:#0000ff;stroke:#000000;" x="219.301666667" xlink:href="#m2608d7e82f" y="327.36"/>
     <use style="fill:#0000ff;stroke:#000000;" x="220.8" xlink:href="#m2608d7e82f" y="350.4"/>
     <use style="fill:#0000ff;stroke:#000000;" x="234.327272727" xlink:href="#m2608d7e82f" y="281.28"/>
     <use style="fill:#0000ff;stroke:#000000;" x="223.568372093" xlink:href="#m2608d7e82f" y="327.36"/>
     <use style="fill:#0000ff;stroke:#000000;" x="221.559183673" xlink:href="#m2608d7e82f" y="335.04"/>
     <use style="fill:#0000ff;stroke:#000000;" x="220.8" xlink:href="#m2608d7e82f" y="350.4"/>
     <use style="fill:#0000ff;stroke:#000000;" x="220.8" xlink:href="#m2608d7e82f" y="350.4"/>
     <use style="fill:#0000ff;stroke:#000000;" x="208.4" xlink:href="#m2608d7e82f" y="335.04"/>
     <use style="fill:#0000ff;stroke:#000000;" x="220.8" xlink:href="#m2608d7e82f" y="350.4"/>
     <use style="fill:#0000ff;stroke:#000000;" x="220.8" xlink:href="#m2608d7e82f" y="350.4"/>
     <use style="fill:#0000ff;stroke:#000000;" x="220.8" xlink:href="#m2608d7e82f" y="350.4"/>
     <use style="fill:#0000ff;stroke:#000000;" x="212.683636364" xlink:href="#m2608d7e82f" y="342.72"/>
     <use style="fill:#0000ff;stroke:#000000;" x="220.8" xlink:href="#m2608d7e82f" y="350.4"/>
     <use style="fill:#0000ff;stroke:#000000;" x="220.8" xlink:href="#m2608d7e82f" y="350.4"/>
     <use style="fill:#0000ff;stroke:#000000;" x="220.8" xlink:href="#m2608d7e82f" y="350.4"/>
     <use style="fill:#0000ff;stroke:#000000;" x="217.328" xlink:href="#m2608d7e82f" y="319.68"/>
     <use style="fill:#0000ff;stroke:#000000;" x="216.0384" xlink:href="#m2608d7e82f" y="335.04"/>
     <use style="fill:#0000ff;stroke:#000000;" x="217.08" xlink:href="#m2608d7e82f" y="296.64"/>
     <use style="fill:#0000ff;stroke:#000000;" x="220.8" xlink:href="#m2608d7e82f" y="350.4"/>
     <use style="fill:#0000ff;stroke:#000000;" x="220.8" xlink:href="#m2608d7e82f" y="350.4"/>
     <use style="fill:#0000ff;stroke:#000000;" x="220.8" xlink:href="#m2608d7e82f" y="350.4"/>
     <use style="fill:#0000ff;stroke:#000000;" x="224.272" xlink:href="#m2608d7e82f" y="342.72"/>
     <use style="fill:#0000ff;stroke:#000000;" x="220.8" xlink:href="#m2608d7e82f" y="350.4"/>
     <use style="fill:#0000ff;stroke:#000000;" x="228.791111111" xlink:href="#m2608d7e82f" y="327.36"/>
     <use style="fill:#0000ff;stroke:#000000;" x="220.8" xlink:href="#m2608d7e82f" y="350.4"/>
     <use style="fill:#0000ff;stroke:#000000;" x="220.8" xlink:href="#m2608d7e82f" y="350.4"/>
     <use style="fill:#0000ff;stroke:#000000;" x="220.8" xlink:href="#m2608d7e82f" y="350.4"/>
     <use style="fill:#0000ff;stroke:#000000;" x="220.8" xlink:href="#m2608d7e82f" y="350.4"/>
     <use style="fill:#0000ff;stroke:#000000;" x="220.8" xlink:href="#m2608d7e82f" y="350.4"/>
     <use style="fill:#0000ff;stroke:#000000;" x="220.8" xlink:href="#m2608d7e82f" y="350.4"/>
     <use style="fill:#0000ff;stroke:#000000;" x="220.8" xlink:href="#m2608d7e82f" y="350.4"/>
     <use style="fill:#0000ff;stroke:#000000;" x="220.8" xlink:href="#m2608d7e82f" y="350.4"/>
     <use style="fill:#0000ff;stroke:#000000;" x="212.12" xlink:href="#m2608d7e82f" y="273.6"/>
     <use style="fill:#0000ff;stroke:#000000;" x="220.8" xlink:href="#m2608d7e82f" y="350.4"/>
     <use style="fill:#0000ff;stroke:#000000;" x="220.8" xlink:href="#m2608d7e82f" y="350.4"/>
     <use style="fill:#0000ff;stroke:#000000;" x="220.8" xlink:href="#m2608d7e82f" y="350.4"/>
     <use style="fill:#0000ff;stroke:#000000;" x="213.36" xlink:href="#m2608d7e82f" y="335.04"/>
     <use style="fill:#0000ff;stroke:#000000;" x="220.8" xlink:href="#m2608d7e82f" y="350.4"/>
     <use style="fill:#0000ff;stroke:#000000;" x="218.559036145" xlink:href="#m2608d7e82f" y="342.72"/>
     <use style="fill:#0000ff;stroke:#000000;" x="220.8" xlink:href="#m2608d7e82f" y="350.4"/>
     <use style="fill:#0000ff;stroke:#000000;" x="220.748689655" xlink:href="#m2608d7e82f" y="342.72"/>
     <use style="fill:#0000ff;stroke:#000000;" x="220.8" xlink:href="#m2608d7e82f" y="335.04"/>
     <use style="fill:#0000ff;stroke:#000000;" x="220.53986014" xlink:href="#m2608d7e82f" y="327.36"/>
     <use style="fill:#0000ff;stroke:#000000;" x="219.716962025" xlink:href="#m2608d7e82f" y="189.12"/>
     <use style="fill:#0000ff;stroke:#000000;" x="218.578333333" xlink:href="#m2608d7e82f" y="312.0"/>
     <use style="fill:#0000ff;stroke:#000000;" x="218.646315789" xlink:href="#m2608d7e82f" y="327.36"/>
     <use style="fill:#0000ff;stroke:#000000;" x="216.091139241" xlink:href="#m2608d7e82f" y="281.28"/>
     <use style="fill:#0000ff;stroke:#000000;" x="217.397560976" xlink:href="#m2608d7e82f" y="319.68"/>
     <use style="fill:#0000ff;stroke:#000000;" x="220.8" xlink:href="#m2608d7e82f" y="350.4"/>
     <use style="fill:#0000ff;stroke:#000000;" x="220.8" xlink:href="#m2608d7e82f" y="350.4"/>
     <use style="fill:#0000ff;stroke:#000000;" x="220.8" xlink:href="#m2608d7e82f" y="350.4"/>
    </g>
   </g>
   <g id="patch_3">
    <path d="M 72 43.2 
L 518.4 43.2 
" style="fill:none;stroke:#000000;stroke-linecap:square;stroke-linejoin:miter;"/>
   </g>
   <g id="patch_4">
    <path d="M 518.4 388.8 
L 518.4 43.2 
" style="fill:none;stroke:#000000;stroke-linecap:square;stroke-linejoin:miter;"/>
   </g>
   <g id="patch_5">
    <path d="M 72 388.8 
L 518.4 388.8 
" style="fill:none;stroke:#000000;stroke-linecap:square;stroke-linejoin:miter;"/>
   </g>
   <g id="patch_6">
    <path d="M 72 388.8 
L 72 43.2 
" style="fill:none;stroke:#000000;stroke-linecap:square;stroke-linejoin:miter;"/>
   </g>
   <g id="matplotlib.axis_1">
    <g id="xtick_1">
     <g id="line2d_1">
      <defs>
       <path d="M 0 0 
L 0 -4 
" id="m043789db92" style="stroke:#000000;stroke-width:0.5;"/>
      </defs>
      <g>
       <use style="stroke:#000000;stroke-width:0.5;" x="72.0" xlink:href="#m043789db92" y="388.8"/>
      </g>
     </g>
     <g id="line2d_2">
      <defs>
       <path d="M 0 0 
L 0 4 
" id="md0ecf2d249" style="stroke:#000000;stroke-width:0.5;"/>
      </defs>
      <g>
       <use style="stroke:#000000;stroke-width:0.5;" x="72.0" xlink:href="#md0ecf2d249" y="43.2"/>
      </g>
     </g>
     <g id="text_1">
      <!-- −2000 -->
      <defs>
       <path d="M 10.59375 35.5 
L 73.1875 35.5 
L 73.1875 27.203125 
L 10.59375 27.203125 
z
" id="BitstreamVeraSans-Roman-2212"/>
       <path d="M 19.1875 8.296875 
L 53.609375 8.296875 
L 53.609375 0 
L 7.328125 0 
L 7.328125 8.296875 
Q 12.9375 14.109375 22.625 23.890625 
Q 32.328125 33.6875 34.8125 36.53125 
Q 39.546875 41.84375 41.421875 45.53125 
Q 43.3125 49.21875 43.3125 52.78125 
Q 43.3125 58.59375 39.234375 62.25 
Q 35.15625 65.921875 28.609375 65.921875 
Q 23.96875 65.921875 18.8125 64.3125 
Q 13.671875 62.703125 7.8125 59.421875 
L 7.8125 69.390625 
Q 13.765625 71.78125 18.9375 73 
Q 24.125 74.21875 28.421875 74.21875 
Q 39.75 74.21875 46.484375 68.546875 
Q 53.21875 62.890625 53.21875 53.421875 
Q 53.21875 48.921875 51.53125 44.890625 
Q 49.859375 40.875 45.40625 35.40625 
Q 44.1875 33.984375 37.640625 27.21875 
Q 31.109375 20.453125 19.1875 8.296875 
" id="BitstreamVeraSans-Roman-32"/>
       <path d="M 31.78125 66.40625 
Q 24.171875 66.40625 20.328125 58.90625 
Q 16.5 51.421875 16.5 36.375 
Q 16.5 21.390625 20.328125 13.890625 
Q 24.171875 6.390625 31.78125 6.390625 
Q 39.453125 6.390625 43.28125 13.890625 
Q 47.125 21.390625 47.125 36.375 
Q 47.125 51.421875 43.28125 58.90625 
Q 39.453125 66.40625 31.78125 66.40625 
M 31.78125 74.21875 
Q 44.046875 74.21875 50.515625 64.515625 
Q 56.984375 54.828125 56.984375 36.375 
Q 56.984375 17.96875 50.515625 8.265625 
Q 44.046875 -1.421875 31.78125 -1.421875 
Q 19.53125 -1.421875 13.0625 8.265625 
Q 6.59375 17.96875 6.59375 36.375 
Q 6.59375 54.828125 13.0625 64.515625 
Q 19.53125 74.21875 31.78125 74.21875 
" id="BitstreamVeraSans-Roman-30"/>
      </defs>
      <g transform="translate(51.7021875 401.918125)scale(0.12 -0.12)">
       <use xlink:href="#BitstreamVeraSans-Roman-2212"/>
       <use x="83.7890625" xlink:href="#BitstreamVeraSans-Roman-32"/>
       <use x="147.412109375" xlink:href="#BitstreamVeraSans-Roman-30"/>
       <use x="211.03515625" xlink:href="#BitstreamVeraSans-Roman-30"/>
       <use x="274.658203125" xlink:href="#BitstreamVeraSans-Roman-30"/>
      </g>
     </g>
    </g>
    <g id="xtick_2">
     <g id="line2d_3">
      <g>
       <use style="stroke:#000000;stroke-width:0.5;" x="146.4" xlink:href="#m043789db92" y="388.8"/>
      </g>
     </g>
     <g id="line2d_4">
      <g>
       <use style="stroke:#000000;stroke-width:0.5;" x="146.4" xlink:href="#md0ecf2d249" y="43.2"/>
      </g>
     </g>
     <g id="text_2">
      <!-- −1000 -->
      <defs>
       <path d="M 12.40625 8.296875 
L 28.515625 8.296875 
L 28.515625 63.921875 
L 10.984375 60.40625 
L 10.984375 69.390625 
L 28.421875 72.90625 
L 38.28125 72.90625 
L 38.28125 8.296875 
L 54.390625 8.296875 
L 54.390625 0 
L 12.40625 0 
z
" id="BitstreamVeraSans-Roman-31"/>
      </defs>
      <g transform="translate(126.1021875 401.918125)scale(0.12 -0.12)">
       <use xlink:href="#BitstreamVeraSans-Roman-2212"/>
       <use x="83.7890625" xlink:href="#BitstreamVeraSans-Roman-31"/>
       <use x="147.412109375" xlink:href="#BitstreamVeraSans-Roman-30"/>
       <use x="211.03515625" xlink:href="#BitstreamVeraSans-Roman-30"/>
       <use x="274.658203125" xlink:href="#BitstreamVeraSans-Roman-30"/>
      </g>
     </g>
    </g>
    <g id="xtick_3">
     <g id="line2d_5">
      <g>
       <use style="stroke:#000000;stroke-width:0.5;" x="220.8" xlink:href="#m043789db92" y="388.8"/>
      </g>
     </g>
     <g id="line2d_6">
      <g>
       <use style="stroke:#000000;stroke-width:0.5;" x="220.8" xlink:href="#md0ecf2d249" y="43.2"/>
      </g>
     </g>
     <g id="text_3">
      <!-- 0 -->
      <g transform="translate(216.9825 401.918125)scale(0.12 -0.12)">
       <use xlink:href="#BitstreamVeraSans-Roman-30"/>
      </g>
     </g>
    </g>
    <g id="xtick_4">
     <g id="line2d_7">
      <g>
       <use style="stroke:#000000;stroke-width:0.5;" x="295.2" xlink:href="#m043789db92" y="388.8"/>
      </g>
     </g>
     <g id="line2d_8">
      <g>
       <use style="stroke:#000000;stroke-width:0.5;" x="295.2" xlink:href="#md0ecf2d249" y="43.2"/>
      </g>
     </g>
     <g id="text_4">
      <!-- 1000 -->
      <g transform="translate(279.93 401.918125)scale(0.12 -0.12)">
       <use xlink:href="#BitstreamVeraSans-Roman-31"/>
       <use x="63.623046875" xlink:href="#BitstreamVeraSans-Roman-30"/>
       <use x="127.24609375" xlink:href="#BitstreamVeraSans-Roman-30"/>
       <use x="190.869140625" xlink:href="#BitstreamVeraSans-Roman-30"/>
      </g>
     </g>
    </g>
    <g id="xtick_5">
     <g id="line2d_9">
      <g>
       <use style="stroke:#000000;stroke-width:0.5;" x="369.6" xlink:href="#m043789db92" y="388.8"/>
      </g>
     </g>
     <g id="line2d_10">
      <g>
       <use style="stroke:#000000;stroke-width:0.5;" x="369.6" xlink:href="#md0ecf2d249" y="43.2"/>
      </g>
     </g>
     <g id="text_5">
      <!-- 2000 -->
      <g transform="translate(354.33 401.918125)scale(0.12 -0.12)">
       <use xlink:href="#BitstreamVeraSans-Roman-32"/>
       <use x="63.623046875" xlink:href="#BitstreamVeraSans-Roman-30"/>
       <use x="127.24609375" xlink:href="#BitstreamVeraSans-Roman-30"/>
       <use x="190.869140625" xlink:href="#BitstreamVeraSans-Roman-30"/>
      </g>
     </g>
    </g>
    <g id="xtick_6">
     <g id="line2d_11">
      <g>
       <use style="stroke:#000000;stroke-width:0.5;" x="444.0" xlink:href="#m043789db92" y="388.8"/>
      </g>
     </g>
     <g id="line2d_12">
      <g>
       <use style="stroke:#000000;stroke-width:0.5;" x="444.0" xlink:href="#md0ecf2d249" y="43.2"/>
      </g>
     </g>
     <g id="text_6">
      <!-- 3000 -->
      <defs>
       <path d="M 40.578125 39.3125 
Q 47.65625 37.796875 51.625 33 
Q 55.609375 28.21875 55.609375 21.1875 
Q 55.609375 10.40625 48.1875 4.484375 
Q 40.765625 -1.421875 27.09375 -1.421875 
Q 22.515625 -1.421875 17.65625 -0.515625 
Q 12.796875 0.390625 7.625 2.203125 
L 7.625 11.71875 
Q 11.71875 9.328125 16.59375 8.109375 
Q 21.484375 6.890625 26.8125 6.890625 
Q 36.078125 6.890625 40.9375 10.546875 
Q 45.796875 14.203125 45.796875 21.1875 
Q 45.796875 27.640625 41.28125 31.265625 
Q 36.765625 34.90625 28.71875 34.90625 
L 20.21875 34.90625 
L 20.21875 43.015625 
L 29.109375 43.015625 
Q 36.375 43.015625 40.234375 45.921875 
Q 44.09375 48.828125 44.09375 54.296875 
Q 44.09375 59.90625 40.109375 62.90625 
Q 36.140625 65.921875 28.71875 65.921875 
Q 24.65625 65.921875 20.015625 65.03125 
Q 15.375 64.15625 9.8125 62.3125 
L 9.8125 71.09375 
Q 15.4375 72.65625 20.34375 73.4375 
Q 25.25 74.21875 29.59375 74.21875 
Q 40.828125 74.21875 47.359375 69.109375 
Q 53.90625 64.015625 53.90625 55.328125 
Q 53.90625 49.265625 50.4375 45.09375 
Q 46.96875 40.921875 40.578125 39.3125 
" id="BitstreamVeraSans-Roman-33"/>
      </defs>
      <g transform="translate(428.73 401.918125)scale(0.12 -0.12)">
       <use xlink:href="#BitstreamVeraSans-Roman-33"/>
       <use x="63.623046875" xlink:href="#BitstreamVeraSans-Roman-30"/>
       <use x="127.24609375" xlink:href="#BitstreamVeraSans-Roman-30"/>
       <use x="190.869140625" xlink:href="#BitstreamVeraSans-Roman-30"/>
      </g>
     </g>
    </g>
    <g id="xtick_7">
     <g id="line2d_13">
      <g>
       <use style="stroke:#000000;stroke-width:0.5;" x="518.4" xlink:href="#m043789db92" y="388.8"/>
      </g>
     </g>
     <g id="line2d_14">
      <g>
       <use style="stroke:#000000;stroke-width:0.5;" x="518.4" xlink:href="#md0ecf2d249" y="43.2"/>
      </g>
     </g>
     <g id="text_7">
      <!-- 4000 -->
      <defs>
       <path d="M 37.796875 64.3125 
L 12.890625 25.390625 
L 37.796875 25.390625 
z
M 35.203125 72.90625 
L 47.609375 72.90625 
L 47.609375 25.390625 
L 58.015625 25.390625 
L 58.015625 17.1875 
L 47.609375 17.1875 
L 47.609375 0 
L 37.796875 0 
L 37.796875 17.1875 
L 4.890625 17.1875 
L 4.890625 26.703125 
z
" id="BitstreamVeraSans-Roman-34"/>
      </defs>
      <g transform="translate(503.13 401.918125)scale(0.12 -0.12)">
       <use xlink:href="#BitstreamVeraSans-Roman-34"/>
       <use x="63.623046875" xlink:href="#BitstreamVeraSans-Roman-30"/>
       <use x="127.24609375" xlink:href="#BitstreamVeraSans-Roman-30"/>
       <use x="190.869140625" xlink:href="#BitstreamVeraSans-Roman-30"/>
      </g>
     </g>
    </g>
    <g id="text_8">
     <!-- percent error -->
     <defs>
      <path id="BitstreamVeraSans-Roman-20"/>
      <path d="M 54.890625 33.015625 
L 54.890625 0 
L 45.90625 0 
L 45.90625 32.71875 
Q 45.90625 40.484375 42.875 44.328125 
Q 39.84375 48.1875 33.796875 48.1875 
Q 26.515625 48.1875 22.3125 43.546875 
Q 18.109375 38.921875 18.109375 30.90625 
L 18.109375 0 
L 9.078125 0 
L 9.078125 54.6875 
L 18.109375 54.6875 
L 18.109375 46.1875 
Q 21.34375 51.125 25.703125 53.5625 
Q 30.078125 56 35.796875 56 
Q 45.21875 56 50.046875 50.171875 
Q 54.890625 44.34375 54.890625 33.015625 
" id="BitstreamVeraSans-Roman-6e"/>
      <path d="M 30.609375 48.390625 
Q 23.390625 48.390625 19.1875 42.75 
Q 14.984375 37.109375 14.984375 27.296875 
Q 14.984375 17.484375 19.15625 11.84375 
Q 23.34375 6.203125 30.609375 6.203125 
Q 37.796875 6.203125 41.984375 11.859375 
Q 46.1875 17.53125 46.1875 27.296875 
Q 46.1875 37.015625 41.984375 42.703125 
Q 37.796875 48.390625 30.609375 48.390625 
M 30.609375 56 
Q 42.328125 56 49.015625 48.375 
Q 55.71875 40.765625 55.71875 27.296875 
Q 55.71875 13.875 49.015625 6.21875 
Q 42.328125 -1.421875 30.609375 -1.421875 
Q 18.84375 -1.421875 12.171875 6.21875 
Q 5.515625 13.875 5.515625 27.296875 
Q 5.515625 40.765625 12.171875 48.375 
Q 18.84375 56 30.609375 56 
" id="BitstreamVeraSans-Roman-6f"/>
      <path d="M 18.109375 8.203125 
L 18.109375 -20.796875 
L 9.078125 -20.796875 
L 9.078125 54.6875 
L 18.109375 54.6875 
L 18.109375 46.390625 
Q 20.953125 51.265625 25.265625 53.625 
Q 29.59375 56 35.59375 56 
Q 45.5625 56 51.78125 48.09375 
Q 58.015625 40.1875 58.015625 27.296875 
Q 58.015625 14.40625 51.78125 6.484375 
Q 45.5625 -1.421875 35.59375 -1.421875 
Q 29.59375 -1.421875 25.265625 0.953125 
Q 20.953125 3.328125 18.109375 8.203125 
M 48.6875 27.296875 
Q 48.6875 37.203125 44.609375 42.84375 
Q 40.53125 48.484375 33.40625 48.484375 
Q 26.265625 48.484375 22.1875 42.84375 
Q 18.109375 37.203125 18.109375 27.296875 
Q 18.109375 17.390625 22.1875 11.75 
Q 26.265625 6.109375 33.40625 6.109375 
Q 40.53125 6.109375 44.609375 11.75 
Q 48.6875 17.390625 48.6875 27.296875 
" id="BitstreamVeraSans-Roman-70"/>
      <path d="M 56.203125 29.59375 
L 56.203125 25.203125 
L 14.890625 25.203125 
Q 15.484375 15.921875 20.484375 11.0625 
Q 25.484375 6.203125 34.421875 6.203125 
Q 39.59375 6.203125 44.453125 7.46875 
Q 49.3125 8.734375 54.109375 11.28125 
L 54.109375 2.78125 
Q 49.265625 0.734375 44.1875 -0.34375 
Q 39.109375 -1.421875 33.890625 -1.421875 
Q 20.796875 -1.421875 13.15625 6.1875 
Q 5.515625 13.8125 5.515625 26.8125 
Q 5.515625 40.234375 12.765625 48.109375 
Q 20.015625 56 32.328125 56 
Q 43.359375 56 49.78125 48.890625 
Q 56.203125 41.796875 56.203125 29.59375 
M 47.21875 32.234375 
Q 47.125 39.59375 43.09375 43.984375 
Q 39.0625 48.390625 32.421875 48.390625 
Q 24.90625 48.390625 20.390625 44.140625 
Q 15.875 39.890625 15.1875 32.171875 
z
" id="BitstreamVeraSans-Roman-65"/>
      <path d="M 18.3125 70.21875 
L 18.3125 54.6875 
L 36.8125 54.6875 
L 36.8125 47.703125 
L 18.3125 47.703125 
L 18.3125 18.015625 
Q 18.3125 11.328125 20.140625 9.421875 
Q 21.96875 7.515625 27.59375 7.515625 
L 36.8125 7.515625 
L 36.8125 0 
L 27.59375 0 
Q 17.1875 0 13.234375 3.875 
Q 9.28125 7.765625 9.28125 18.015625 
L 9.28125 47.703125 
L 2.6875 47.703125 
L 2.6875 54.6875 
L 9.28125 54.6875 
L 9.28125 70.21875 
z
" id="BitstreamVeraSans-Roman-74"/>
      <path d="M 41.109375 46.296875 
Q 39.59375 47.171875 37.8125 47.578125 
Q 36.03125 48 33.890625 48 
Q 26.265625 48 22.1875 43.046875 
Q 18.109375 38.09375 18.109375 28.8125 
L 18.109375 0 
L 9.078125 0 
L 9.078125 54.6875 
L 18.109375 54.6875 
L 18.109375 46.1875 
Q 20.953125 51.171875 25.484375 53.578125 
Q 30.03125 56 36.53125 56 
Q 37.453125 56 38.578125 55.875 
Q 39.703125 55.765625 41.0625 55.515625 
z
" id="BitstreamVeraSans-Roman-72"/>
      <path d="M 48.78125 52.59375 
L 48.78125 44.1875 
Q 44.96875 46.296875 41.140625 47.34375 
Q 37.3125 48.390625 33.40625 48.390625 
Q 24.65625 48.390625 19.8125 42.84375 
Q 14.984375 37.3125 14.984375 27.296875 
Q 14.984375 17.28125 19.8125 11.734375 
Q 24.65625 6.203125 33.40625 6.203125 
Q 37.3125 6.203125 41.140625 7.25 
Q 44.96875 8.296875 48.78125 10.40625 
L 48.78125 2.09375 
Q 45.015625 0.34375 40.984375 -0.53125 
Q 36.96875 -1.421875 32.421875 -1.421875 
Q 20.0625 -1.421875 12.78125 6.34375 
Q 5.515625 14.109375 5.515625 27.296875 
Q 5.515625 40.671875 12.859375 48.328125 
Q 20.21875 56 33.015625 56 
Q 37.15625 56 41.109375 55.140625 
Q 45.0625 54.296875 48.78125 52.59375 
" id="BitstreamVeraSans-Roman-63"/>
     </defs>
     <g transform="translate(255.421875 418.531875)scale(0.12 -0.12)">
      <use xlink:href="#BitstreamVeraSans-Roman-70"/>
      <use x="63.4765625" xlink:href="#BitstreamVeraSans-Roman-65"/>
      <use x="125.0" xlink:href="#BitstreamVeraSans-Roman-72"/>
      <use x="166.08203125" xlink:href="#BitstreamVeraSans-Roman-63"/>
      <use x="221.0625" xlink:href="#BitstreamVeraSans-Roman-65"/>
      <use x="282.5859375" xlink:href="#BitstreamVeraSans-Roman-6e"/>
      <use x="345.96484375" xlink:href="#BitstreamVeraSans-Roman-74"/>
      <use x="385.173828125" xlink:href="#BitstreamVeraSans-Roman-20"/>
      <use x="416.9609375" xlink:href="#BitstreamVeraSans-Roman-65"/>
      <use x="478.484375" xlink:href="#BitstreamVeraSans-Roman-72"/>
      <use x="519.58203125" xlink:href="#BitstreamVeraSans-Roman-72"/>
      <use x="560.6640625" xlink:href="#BitstreamVeraSans-Roman-6f"/>
      <use x="621.845703125" xlink:href="#BitstreamVeraSans-Roman-72"/>
     </g>
    </g>
   </g>
   <g id="matplotlib.axis_2">
    <g id="ytick_1">
     <g id="line2d_15">
      <defs>
       <path d="M 0 0 
L 4 0 
" id="mc5f195ff93" style="stroke:#000000;stroke-width:0.5;"/>
      </defs>
      <g>
       <use style="stroke:#000000;stroke-width:0.5;" x="72.0" xlink:href="#mc5f195ff93" y="388.8"/>
      </g>
     </g>
     <g id="line2d_16">
      <defs>
       <path d="M 0 0 
L -4 0 
" id="m53269e2c7c" style="stroke:#000000;stroke-width:0.5;"/>
      </defs>
      <g>
       <use style="stroke:#000000;stroke-width:0.5;" x="518.4" xlink:href="#m53269e2c7c" y="388.8"/>
      </g>
     </g>
     <g id="text_9">
      <!-- −5 -->
      <defs>
       <path d="M 10.796875 72.90625 
L 49.515625 72.90625 
L 49.515625 64.59375 
L 19.828125 64.59375 
L 19.828125 46.734375 
Q 21.96875 47.46875 24.109375 47.828125 
Q 26.265625 48.1875 28.421875 48.1875 
Q 40.625 48.1875 47.75 41.5 
Q 54.890625 34.8125 54.890625 23.390625 
Q 54.890625 11.625 47.5625 5.09375 
Q 40.234375 -1.421875 26.90625 -1.421875 
Q 22.3125 -1.421875 17.546875 -0.640625 
Q 12.796875 0.140625 7.71875 1.703125 
L 7.71875 11.625 
Q 12.109375 9.234375 16.796875 8.0625 
Q 21.484375 6.890625 26.703125 6.890625 
Q 35.15625 6.890625 40.078125 11.328125 
Q 45.015625 15.765625 45.015625 23.390625 
Q 45.015625 31 40.078125 35.4375 
Q 35.15625 39.890625 26.703125 39.890625 
Q 22.75 39.890625 18.8125 39.015625 
Q 14.890625 38.140625 10.796875 36.28125 
z
" id="BitstreamVeraSans-Roman-35"/>
      </defs>
      <g transform="translate(50.309375 392.11125)scale(0.12 -0.12)">
       <use xlink:href="#BitstreamVeraSans-Roman-2212"/>
       <use x="83.7890625" xlink:href="#BitstreamVeraSans-Roman-35"/>
      </g>
     </g>
    </g>
    <g id="ytick_2">
     <g id="line2d_17">
      <g>
       <use style="stroke:#000000;stroke-width:0.5;" x="72.0" xlink:href="#mc5f195ff93" y="350.4"/>
      </g>
     </g>
     <g id="line2d_18">
      <g>
       <use style="stroke:#000000;stroke-width:0.5;" x="518.4" xlink:href="#m53269e2c7c" y="350.4"/>
      </g>
     </g>
     <g id="text_10">
      <!-- 0 -->
      <g transform="translate(60.365 353.71125)scale(0.12 -0.12)">
       <use xlink:href="#BitstreamVeraSans-Roman-30"/>
      </g>
     </g>
    </g>
    <g id="ytick_3">
     <g id="line2d_19">
      <g>
       <use style="stroke:#000000;stroke-width:0.5;" x="72.0" xlink:href="#mc5f195ff93" y="312.0"/>
      </g>
     </g>
     <g id="line2d_20">
      <g>
       <use style="stroke:#000000;stroke-width:0.5;" x="518.4" xlink:href="#m53269e2c7c" y="312.0"/>
      </g>
     </g>
     <g id="text_11">
      <!-- 5 -->
      <g transform="translate(60.365 315.31125)scale(0.12 -0.12)">
       <use xlink:href="#BitstreamVeraSans-Roman-35"/>
      </g>
     </g>
    </g>
    <g id="ytick_4">
     <g id="line2d_21">
      <g>
       <use style="stroke:#000000;stroke-width:0.5;" x="72.0" xlink:href="#mc5f195ff93" y="273.6"/>
      </g>
     </g>
     <g id="line2d_22">
      <g>
       <use style="stroke:#000000;stroke-width:0.5;" x="518.4" xlink:href="#m53269e2c7c" y="273.6"/>
      </g>
     </g>
     <g id="text_12">
      <!-- 10 -->
      <g transform="translate(52.73 276.91125)scale(0.12 -0.12)">
       <use xlink:href="#BitstreamVeraSans-Roman-31"/>
       <use x="63.623046875" xlink:href="#BitstreamVeraSans-Roman-30"/>
      </g>
     </g>
    </g>
    <g id="ytick_5">
     <g id="line2d_23">
      <g>
       <use style="stroke:#000000;stroke-width:0.5;" x="72.0" xlink:href="#mc5f195ff93" y="235.2"/>
      </g>
     </g>
     <g id="line2d_24">
      <g>
       <use style="stroke:#000000;stroke-width:0.5;" x="518.4" xlink:href="#m53269e2c7c" y="235.2"/>
      </g>
     </g>
     <g id="text_13">
      <!-- 15 -->
      <g transform="translate(52.73 238.51125)scale(0.12 -0.12)">
       <use xlink:href="#BitstreamVeraSans-Roman-31"/>
       <use x="63.623046875" xlink:href="#BitstreamVeraSans-Roman-35"/>
      </g>
     </g>
    </g>
    <g id="ytick_6">
     <g id="line2d_25">
      <g>
       <use style="stroke:#000000;stroke-width:0.5;" x="72.0" xlink:href="#mc5f195ff93" y="196.8"/>
      </g>
     </g>
     <g id="line2d_26">
      <g>
       <use style="stroke:#000000;stroke-width:0.5;" x="518.4" xlink:href="#m53269e2c7c" y="196.8"/>
      </g>
     </g>
     <g id="text_14">
      <!-- 20 -->
      <g transform="translate(52.73 200.11125)scale(0.12 -0.12)">
       <use xlink:href="#BitstreamVeraSans-Roman-32"/>
       <use x="63.623046875" xlink:href="#BitstreamVeraSans-Roman-30"/>
      </g>
     </g>
    </g>
    <g id="ytick_7">
     <g id="line2d_27">
      <g>
       <use style="stroke:#000000;stroke-width:0.5;" x="72.0" xlink:href="#mc5f195ff93" y="158.4"/>
      </g>
     </g>
     <g id="line2d_28">
      <g>
       <use style="stroke:#000000;stroke-width:0.5;" x="518.4" xlink:href="#m53269e2c7c" y="158.4"/>
      </g>
     </g>
     <g id="text_15">
      <!-- 25 -->
      <g transform="translate(52.73 161.71125)scale(0.12 -0.12)">
       <use xlink:href="#BitstreamVeraSans-Roman-32"/>
       <use x="63.623046875" xlink:href="#BitstreamVeraSans-Roman-35"/>
      </g>
     </g>
    </g>
    <g id="ytick_8">
     <g id="line2d_29">
      <g>
       <use style="stroke:#000000;stroke-width:0.5;" x="72.0" xlink:href="#mc5f195ff93" y="120.0"/>
      </g>
     </g>
     <g id="line2d_30">
      <g>
       <use style="stroke:#000000;stroke-width:0.5;" x="518.4" xlink:href="#m53269e2c7c" y="120.0"/>
      </g>
     </g>
     <g id="text_16">
      <!-- 30 -->
      <g transform="translate(52.73 123.31125)scale(0.12 -0.12)">
       <use xlink:href="#BitstreamVeraSans-Roman-33"/>
       <use x="63.623046875" xlink:href="#BitstreamVeraSans-Roman-30"/>
      </g>
     </g>
    </g>
    <g id="ytick_9">
     <g id="line2d_31">
      <g>
       <use style="stroke:#000000;stroke-width:0.5;" x="72.0" xlink:href="#mc5f195ff93" y="81.6"/>
      </g>
     </g>
     <g id="line2d_32">
      <g>
       <use style="stroke:#000000;stroke-width:0.5;" x="518.4" xlink:href="#m53269e2c7c" y="81.6"/>
      </g>
     </g>
     <g id="text_17">
      <!-- 35 -->
      <g transform="translate(52.73 84.91125)scale(0.12 -0.12)">
       <use xlink:href="#BitstreamVeraSans-Roman-33"/>
       <use x="63.623046875" xlink:href="#BitstreamVeraSans-Roman-35"/>
      </g>
     </g>
    </g>
    <g id="ytick_10">
     <g id="line2d_33">
      <g>
       <use style="stroke:#000000;stroke-width:0.5;" x="72.0" xlink:href="#mc5f195ff93" y="43.2"/>
      </g>
     </g>
     <g id="line2d_34">
      <g>
       <use style="stroke:#000000;stroke-width:0.5;" x="518.4" xlink:href="#m53269e2c7c" y="43.2"/>
      </g>
     </g>
     <g id="text_18">
      <!-- 40 -->
      <g transform="translate(52.73 46.51125)scale(0.12 -0.12)">
       <use xlink:href="#BitstreamVeraSans-Roman-34"/>
       <use x="63.623046875" xlink:href="#BitstreamVeraSans-Roman-30"/>
      </g>
     </g>
    </g>
    <g id="text_19">
     <!-- move rank -->
     <defs>
      <path d="M 2.984375 54.6875 
L 12.5 54.6875 
L 29.59375 8.796875 
L 46.6875 54.6875 
L 56.203125 54.6875 
L 35.6875 0 
L 23.484375 0 
z
" id="BitstreamVeraSans-Roman-76"/>
      <path d="M 52 44.1875 
Q 55.375 50.25 60.0625 53.125 
Q 64.75 56 71.09375 56 
Q 79.640625 56 84.28125 50.015625 
Q 88.921875 44.046875 88.921875 33.015625 
L 88.921875 0 
L 79.890625 0 
L 79.890625 32.71875 
Q 79.890625 40.578125 77.09375 44.375 
Q 74.3125 48.1875 68.609375 48.1875 
Q 61.625 48.1875 57.5625 43.546875 
Q 53.515625 38.921875 53.515625 30.90625 
L 53.515625 0 
L 44.484375 0 
L 44.484375 32.71875 
Q 44.484375 40.625 41.703125 44.40625 
Q 38.921875 48.1875 33.109375 48.1875 
Q 26.21875 48.1875 22.15625 43.53125 
Q 18.109375 38.875 18.109375 30.90625 
L 18.109375 0 
L 9.078125 0 
L 9.078125 54.6875 
L 18.109375 54.6875 
L 18.109375 46.1875 
Q 21.1875 51.21875 25.484375 53.609375 
Q 29.78125 56 35.6875 56 
Q 41.65625 56 45.828125 52.96875 
Q 50 49.953125 52 44.1875 
" id="BitstreamVeraSans-Roman-6d"/>
      <path d="M 34.28125 27.484375 
Q 23.390625 27.484375 19.1875 25 
Q 14.984375 22.515625 14.984375 16.5 
Q 14.984375 11.71875 18.140625 8.90625 
Q 21.296875 6.109375 26.703125 6.109375 
Q 34.1875 6.109375 38.703125 11.40625 
Q 43.21875 16.703125 43.21875 25.484375 
L 43.21875 27.484375 
z
M 52.203125 31.203125 
L 52.203125 0 
L 43.21875 0 
L 43.21875 8.296875 
Q 40.140625 3.328125 35.546875 0.953125 
Q 30.953125 -1.421875 24.3125 -1.421875 
Q 15.921875 -1.421875 10.953125 3.296875 
Q 6 8.015625 6 15.921875 
Q 6 25.140625 12.171875 29.828125 
Q 18.359375 34.515625 30.609375 34.515625 
L 43.21875 34.515625 
L 43.21875 35.40625 
Q 43.21875 41.609375 39.140625 45 
Q 35.0625 48.390625 27.6875 48.390625 
Q 23 48.390625 18.546875 47.265625 
Q 14.109375 46.140625 10.015625 43.890625 
L 10.015625 52.203125 
Q 14.9375 54.109375 19.578125 55.046875 
Q 24.21875 56 28.609375 56 
Q 40.484375 56 46.34375 49.84375 
Q 52.203125 43.703125 52.203125 31.203125 
" id="BitstreamVeraSans-Roman-61"/>
      <path d="M 9.078125 75.984375 
L 18.109375 75.984375 
L 18.109375 31.109375 
L 44.921875 54.6875 
L 56.390625 54.6875 
L 27.390625 29.109375 
L 57.625 0 
L 45.90625 0 
L 18.109375 26.703125 
L 18.109375 0 
L 9.078125 0 
z
" id="BitstreamVeraSans-Roman-6b"/>
     </defs>
     <g transform="translate(42.81375 248.0859375)rotate(-90.0)scale(0.12 -0.12)">
      <use xlink:href="#BitstreamVeraSans-Roman-6d"/>
      <use x="97.412109375" xlink:href="#BitstreamVeraSans-Roman-6f"/>
      <use x="158.59375" xlink:href="#BitstreamVeraSans-Roman-76"/>
      <use x="217.7734375" xlink:href="#BitstreamVeraSans-Roman-65"/>
      <use x="279.296875" xlink:href="#BitstreamVeraSans-Roman-20"/>
      <use x="311.083984375" xlink:href="#BitstreamVeraSans-Roman-72"/>
      <use x="352.197265625" xlink:href="#BitstreamVeraSans-Roman-61"/>
      <use x="413.4765625" xlink:href="#BitstreamVeraSans-Roman-6e"/>
      <use x="476.85546875" xlink:href="#BitstreamVeraSans-Roman-6b"/>
     </g>
    </g>
   </g>
  </g>
 </g>
 <defs>
  <clipPath id="p5f0d1a0c83">
   <rect height="345.6" width="446.4" x="72.0" y="43.2"/>
  </clipPath>
 </defs>
</svg>
